<svg id="Layer_1" data-name="Layer 1" xmlns="http://www.w3.org/2000/svg" viewBox="0 0 4680 3120"><defs><style>.cls-1{fill:#fff;}.cls-2{fill:#ff7f66;}.cls-3{fill:#fef7ef;}.cls-4{fill:none;}</style></defs><rect class="cls-1" width="4680" height="3120"/><path class="cls-2" d="M2864.32,2503.16q33.46-20.4,68-39.42c176.64-97.25,905.24-533.5,454.48-885.58-510.47-398.73-484.12-582.94-451-804.95s-179.59-609.44-859.1-302.9-885.29,871.39-889.23,1131.33c-6,394,115.24,1111,676.59,1157C2340.55,2797.73,2751.15,2572.19,2864.32,2503.16Z"/><path d="M2265.12,914.65s10.54,26.35,14.21,51.61,6.5,84.87,6.5,84.87L2164.07,912.86Z"/><path class="cls-1" d="M1974.36,996.56s37.84,176.79,173.35,183c0,0,12.39,21.32,11,29.58s-74.29,35.08-74.29,35.08,138.27,153.4,288.91,79.11,162.35-183,162.35-183-163.72-5.5-187.8-24.77-65.35-59.84-89.42-108c0,0,22.7-19.94,13.75-37.14s-30.95-24.77-39.21-11.7-.68,22.7-7.56,22.7-40.59-65.35-70.86-66.72S1977.8,943.59,1974.36,996.56Z"/><path d="M2287.49,1346.62a201.92,201.92,0,0,1-23.19-1.35c-30.59-3.52-62-14-93.34-31-53.23-29-88.41-67.65-88.76-68l-3-3.29,4.16-1.53c33.42-12.3,69.47-27.92,72.4-32.94.66-5.06-5.38-18-9.87-26-30.89-1.73-59.25-12.41-84.3-31.74-20.3-15.67-38.46-37-54-63.46a343.09,343.09,0,0,1-36.2-90.06l-.09-.41,0-.42c2-30.25,45.72-51.47,82.07-64,38.39-13.17,84.2-21.47,101.29-20.71,21.82,1,44.11,31.42,58.87,51.55,4.66,6.36,9.91,13.52,12,15a26.2,26.2,0,0,0,.09-2.77c0-4.31,0-10.83,4.76-18.41,3.43-5.44,9.12-8.27,16-8,10.86.46,22.54,8.64,28.4,19.9,8.45,16.27-7.31,33.83-12.74,39.18,22.32,43.57,59.75,82.72,87.62,105,6.54,5.23,29.42,12.77,101.31,19,43.36,3.73,84.3,5.14,84.71,5.15l3.23.11-.35,3.21c-.12,1.14-3.24,28.25-25.08,64.85-20.06,33.61-60.44,81.8-138.92,120.5A195.32,195.32,0,0,1,2287.49,1346.62Zm-197.76-101.2c9.56,9.81,40.78,40,84.25,63.64,30.64,16.66,61.3,26.84,91.11,30.26a189.25,189.25,0,0,0,106.93-18.7c77-38,116.57-85.06,136.22-117.87,17-28.46,22.46-51.39,24-59.54-24.26-.93-163.28-7-186.18-25.3-28.79-23-67.62-63.77-90.24-109l-1-2.07,1.74-1.53c.2-.18,20.82-18.61,13.07-33.51-4.91-9.45-14.5-16.3-23.32-16.67-3.29-.15-7.82.65-10.69,5.2-3.85,6.1-3.84,11.35-3.84,15.19,0,2.93,0,5.47-1.8,7.28a6,6,0,0,1-4.46,1.62c-3.59,0-7.09-4.53-16.69-17.62-13.22-18-35.35-48.24-54.3-49.1-14.31-.67-57.82,6.23-99.07,20.39-28.21,9.68-75.72,30.08-78,58.25a337.67,337.67,0,0,0,35.5,88c15.13,25.75,32.78,46.5,52.47,61.67,24.48,18.88,52.24,29.15,82.49,30.53l1.64.08.82,1.41c1.32,2.28,12.88,22.52,11.37,31.58-.4,2.37-1.13,6.79-39.46,22.91C2109.24,1238,2096.23,1243,2089.73,1245.42Zm136.2-267Z"/><path class="cls-2" d="M1942.26,972.72s-16.51-87.14,67-137.59,167.84-39.44,211,4.59,50.45,86.21,50.45,86.21-1.38,7.34-45.17,3.67S1942.26,972.72,1942.26,972.72Z"/><path class="cls-1" d="M1939.88,976.24l-.57-3c-.17-.92-4.17-22.72,2.2-51.09,5.88-26.2,22.14-63,66.16-89.63C2047.5,808.49,2089.8,796.87,2130,799c37.07,2,69.86,15.67,92.33,38.62,43.26,44.18,50.95,86,51.25,87.8l.1.53-.1.54c-1.63,8.7-31,7.56-48.37,6.1-42.89-3.56-280,42.61-282.36,43.07ZM2120.6,804.76c-36.25,0-74,11.3-109.83,32.94-42.21,25.51-57.78,60.74-63.4,85.8a138.38,138.38,0,0,0-2.59,45.68c13.09-2.54,65.88-12.67,122.14-22.35,86.94-15,140.36-21.76,158.78-20.22,30.82,2.59,39.49-.39,41.66-1.61-1.76-7.7-11.86-44.92-49.33-83.18-21.41-21.87-52.79-35-88.36-36.83C2126.66,804.83,2123.63,804.76,2120.6,804.76ZM2268,924.54Z"/><path class="cls-1" d="M2082.59,1064s13.76,19.72,9.63,39.9,11.7,38.06,34.86,15.59"/><path d="M2106.93,1132.88a16.47,16.47,0,0,1-8-2c-8.22-4.51-12.1-15.6-9.65-27.6,3.82-18.64-9-37.4-9.15-37.58a3,3,0,1,1,4.92-3.43c.6.84,14.45,21,10.11,42.21-1.89,9.26.84,18,6.65,21.14s14.39.23,23.18-8.3a3,3,0,0,1,4.18,4.31C2121.53,1129,2113.79,1132.88,2106.93,1132.88Z"/><path d="M2144.7,1111.44c-.82,0-1.63,0-2.42-.06-10.16-.51-17.25-4.24-20-10.5-5.38-12.38,8.75-30.05,32.16-40.23s46-8.45,51.36,3.93-8.75,30.05-32.16,40.22C2163.75,1109.12,2153.56,1111.44,2144.7,1111.44Zm38.67-51.46c-7.4,0-16.6,1.87-26.51,6.17-21.68,9.43-32.53,24.33-29.05,32.34,1.74,4,7.12,6.51,14.77,6.9,8.5.42,18.69-1.74,28.69-6.09,21.69-9.43,32.53-24.33,29.05-32.33C2198.43,1062.62,2192.17,1060,2183.37,1060Z"/><path d="M2031.5,1160.64c-.82,0-1.62,0-2.42-.06-10.15-.51-17.24-4.24-20-10.5-5.38-12.38,8.74-30,32.16-40.23s46-8.45,51.35,3.93-8.74,30-32.16,40.23C2050.55,1158.32,2040.37,1160.64,2031.5,1160.64Zm38.68-51.46c-7.4,0-16.6,1.87-26.51,6.17-21.69,9.43-32.53,24.33-29.05,32.34,1.74,4,7.12,6.52,14.76,6.9,8.51.43,18.69-1.74,28.7-6.09,21.69-9.42,32.53-24.32,29.05-32.33C2085.24,1111.82,2079,1109.18,2070.18,1109.18Z"/><line class="cls-1" x1="2199.49" y1="1061.28" x2="2225.45" y2="981.42"/><rect x="2170.48" y="1018.35" width="83.97" height="6" transform="translate(557 2809.54) rotate(-71.99)"/><ellipse cx="2038.11" cy="1089.04" rx="6.57" ry="9.32" transform="translate(-271.47 1164.96) rotate(-30)"/><ellipse cx="2134.44" cy="1051.13" rx="6.57" ry="9.32" transform="translate(-239.61 1208.04) rotate(-30)"/><path d="M2087,1114.07a2.82,2.82,0,0,1-.65-.08,3,3,0,0,1-2.29-3.56c.11-.48,2.71-11.92,13.08-17.33,7.58-3.95,17.11-3.6,28.31,1.06a3,3,0,0,1-2.31,5.54c-9.45-3.93-17.25-4.37-23.17-1.3-7.88,4.07-10,13.23-10,13.32A3,3,0,0,1,2087,1114.07Z"/><path d="M2013.58,1073.12a2.81,2.81,0,0,1-.65-.07,3,3,0,0,1-2.29-3.56c.11-.49,2.71-11.92,13.08-17.33,7.58-4,17.11-3.6,28.31,1.06a3,3,0,0,1-2.31,5.54c-9.45-3.94-17.25-4.37-23.18-1.31-7.87,4.08-10,13.23-10,13.32A3,3,0,0,1,2013.58,1073.12Z"/><path d="M2097.14,1014.5a2.88,2.88,0,0,1-.65-.07,3,3,0,0,1-2.29-3.56c.11-.49,2.71-11.92,13.08-17.33,7.59-4,17.11-3.6,28.31,1.06a3,3,0,1,1-2.31,5.54c-9.45-3.93-17.25-4.37-23.17-1.31-7.88,4.08-10,13.23-10.05,13.33A3,3,0,0,1,2097.14,1014.5Z"/><path d="M2146.11,1176.56s48.08-.84,67.34-23.47c0,0,11.31-7,13.45,2.76s-33.53,49.23-71.19,56.72c0,0,6.48-2.75.36-15.86S2146.11,1176.56,2146.11,1176.56Z"/><path d="M2244.19,992.72a3,3,0,0,1-2.37-4.84c2-2.56,7.27-10.36,8-15.58a3,3,0,1,1,5.94.84c-1.12,7.87-8.87,18-9.2,18.41A3,3,0,0,1,2244.19,992.72Z"/><path d="M2259.24,989.14a3,3,0,0,1-3-2.78c-.89-12-9.8-16.46-12.11-17.06a2.88,2.88,0,0,1-1.49-.22,3,3,0,0,1-1.59-3.93,3.26,3.26,0,0,1,3.78-1.82c3.16.52,16.18,6.17,17.4,22.59a3,3,0,0,1-2.77,3.21Zm-12.7-21.56h0Zm0,0Zm0,0Zm0,0v0Zm0,0h0Zm0,0Zm0,0v0Zm0,0Zm0,0Zm0,0h0Zm0,0h0Zm0,0Zm0,0Zm0,0Zm0,0Zm0,0Zm0,0h0Z"/><path class="cls-2" d="M2184.75,932.38s-47.55,25.1-190.23,80.89c-90.5,35.37-122.22,28.26-133.31,18.31h0c-6.41-5.73-6-12.41-6-12.41,3.15-27.79,56.1-60.92,149.09-93.4,41.8-14.6,82.47-14.74,114.58-10.46C2158.25,920.53,2184.75,932.38,2184.75,932.38Z"/><path class="cls-1" d="M1890.24,1042.68c-13.15,0-24-2.58-31-8.86l-1.13-1v-.07a19.18,19.18,0,0,1-5.81-13.77v-.13c2.32-20.49,30.42-53.76,151.08-95.9,35.82-12.51,74.84-16.08,116-10.6,39.3,5.22,65.54,16.82,66.64,17.31l5.62,2.52-5.44,2.87c-.48.26-49.33,25.83-190.54,81C1961.21,1029.51,1919.93,1042.68,1890.24,1042.68Zm-26.61-13c9.73,8.21,39.47,16.07,129.79-19.23,113.82-44.5,167.38-69.64,184-77.79a276.45,276.45,0,0,0-58.89-14.41c-40.19-5.36-78.27-1.89-113.2,10.31-90.42,31.58-144,64.68-147.09,90.82,0,.52,0,5.49,5,9.93Z"/><path class="cls-2" d="M2118.93,915.3c-65.9,6.27-152.13,39.56-200.63,65-49,25.67-57.09,51.31-57.09,51.31-6.41-5.73-6-12.41-6-12.41,3.15-27.79,56.1-60.92,149.09-93.4C2046.15,911.16,2086.82,911,2118.93,915.3Z"/><path class="cls-1" d="M1862.67,1036.91l-3.46-3.1c-7.42-6.64-7-14.52-6.94-14.85v-.13c2.32-20.49,30.42-53.76,151.08-95.9,35.82-12.51,74.84-16.08,116-10.6l26.06,3.47-26.17,2.49c-63.93,6.08-148.24,37.76-199.53,64.63-47.37,24.81-55.54,49.31-55.62,49.56Zm-4.42-17.5a12.42,12.42,0,0,0,2.15,6.67c4.64-8.75,18.63-28.64,56.51-48.48,45-23.56,115.17-50.79,175.26-61.58-30.53-1.13-59.64,3.07-86.83,12.57C1914.92,960.17,1861.33,993.27,1858.25,1019.41Z"/><path d="M3187.84,2106.38c-200.24,43.53-465,82.4-758.55,108.48q-34.41,3.06-69.34,5.88c-675.58,54.51-1229.64,19.38-1237.53-78.46-6.57-81.48,367.75-180.77,883.34-243.17,103.49-12.53,212.67-23.57,325.6-32.68,290-23.4,557.67-30.28,769.31-22.76,281.33,10,463.72,45.38,468.22,101.22C3573,1996.21,3426.05,2054.6,3187.84,2106.38Z"/><path class="cls-1" d="M1800,1714.5s-19.87,119.75-15.62,139.78,216.69-15.23,216.75-20.64-72-108.45-72-108.45Z"/><path d="M1812.42,1863.38c-1.65,0-3.23,0-4.75-.05-17.21-.4-25.05-2.92-26.22-8.42-4.31-20.36,14.78-136,15.6-140.9l.45-2.73,133.31,11,.81,1.16c.18.26,18.23,26.08,36,52.23,36.53,53.65,36.5,56.25,36.49,58,0,2.82-2,4-15.59,7.13-8.49,1.94-20.24,4.22-34,6.61-31,5.38-66.15,10.26-94.15,13C1840.89,1862.4,1824.78,1863.38,1812.42,1863.38Zm-25.1-9.72s.38.75,2.84,1.58c12.79,4.29,53.77,2.15,112.41-5.86,48-6.56,86-14.07,94.83-17.08-6.13-11.82-44.77-68.29-69.89-104.24l-125-10.34c-6.91,42-18.39,120.87-15.2,135.94Zm210.86-19.59Z"/><path class="cls-3" d="M3187.84,2104.38c-200.24,43.53-465,82.4-758.55,108.48-150.33-79.66-325-227.33-423.53-315.75-48.2-43.25-78.18-72.32-78.18-72.32l1.58-65.38s-122.65-17.17-169.42-47.44c0,0,99.39-445,362-482.51,0,0,116.77,123.43,243.35,45S2504,1129.14,2504,1129.14s119.7-29.4,264.16,106.8,178.39,299.93,178.39,299.93,78.71,120.9,154.08,305.8C3132.35,1919.35,3163.43,2008.33,3187.84,2104.38Z"/><path d="M2428.67,2215.93l-.78-.42c-152.58-80.85-331.22-232.79-424.13-316.16-47.69-42.8-78-72.11-78.27-72.4l-.94-.92,1.55-64c-18.6-2.75-124.46-19.34-168-47.51l-1.75-1.13.46-2c.24-1.12,25.58-112.93,82.76-227.86,33.63-67.59,71.53-123.06,112.67-164.87,51.62-52.45,108.5-83.44,169.07-92.1l1.53-.22,1.07,1.13c.29.31,29.44,30.79,73.47,51.34,25.73,12,51.45,18.33,76.44,18.79,31.17.59,61.34-8,89.68-25.61,124-76.83,137.46-142.67,137.58-143.32l.36-1.91,1.88-.46c1.25-.31,31.13-7.4,79.21,2.3,44.17,8.9,112.58,34.39,187.72,105.23,75,70.69,119.71,148.86,144,202,24.72,54,34,93.82,35.12,99,5.42,8.45,81.76,128.52,154,305.84,36,88.23,65.35,176.75,87.3,263.1l.77,3-3,.66c-206.27,44.85-475.8,83.39-758.92,108.54Zm-498.06-392.38c5.46,5.26,34.24,32.82,77.16,71.33,92.54,83,270.3,234.26,422.14,314.92,281.18-25,548.83-63.23,754.26-107.69-21.8-85.13-50.82-172.36-86.27-259.3-74.41-182.53-153-304.09-153.82-305.3l-.31-.47-.11-.56c-.09-.41-8.77-41.4-34.9-98.42-24.1-52.59-68.41-130-142.62-199.93-73.94-69.72-141.08-94.84-184.39-103.64-40.44-8.22-68.18-4.12-75.23-2.8-1.41,5.29-6.48,20.62-22.05,42.45-17.41,24.43-52,62.11-117.8,102.88-29.37,18.2-60.68,27.12-93.06,26.5-25.85-.49-52.41-7-78.93-19.43a277.73,277.73,0,0,1-74-51.44c-58.66,8.76-113.86,39.07-164.1,90.11C1915.88,1364.09,1878.34,1419,1845,1486c-52.62,105.74-78.13,208.83-81.85,224.54,47,28.88,165.22,45.7,166.43,45.87l2.65.37Z"/><path class="cls-2" d="M2256.67,1394.64q-13.34,0-26.48-.9a366.49,366.49,0,0,1-174.91-58.26c-39.23-25.59-59.46-49.56-60.3-50.57l4.6-3.85c.2.24,20.64,24.43,59.21,49.55a360.42,360.42,0,0,0,171.95,57.15c64.63,4.42,132.9-7.8,202.93-36.29,84.42-34.35,172.38-92.83,261.44-173.82l4,4.44c-89.61,81.49-178.2,140.36-263.31,175C2374.41,1382,2314.27,1394.64,2256.67,1394.64Z"/><path class="cls-2" d="M2313.11,1468a570.75,570.75,0,0,1-84.86-6.5c-49.54-7.44-100.52-21.29-151.54-41.13-86.85-33.79-144.53-73.88-145.1-74.28l3.44-4.91c.57.39,57.78,40.14,144,73.66,50.59,19.67,101.13,33.38,150.22,40.75,61.28,9.2,120.45,8.49,175.87-2.11,132.53-25.36,244.93-107,334.11-242.55l5,3.29c-90.11,137-203.84,219.49-338,245.16A495.93,495.93,0,0,1,2313.11,1468Z"/><path class="cls-2" d="M2267.83,1554.45a617.67,617.67,0,0,1-106.2-9.25c-89.51-15.6-162.12-48.48-207.27-73.32-49-26.94-77.17-50.55-77.45-50.79l3.86-4.58c.28.23,28.18,23.56,76.72,50.24,44.76,24.6,116.74,57.17,205.44,72.59,99.63,17.31,199.66,9.92,297.3-22,122.17-39.92,241-118.54,353.11-233.68l4.3,4.18c-112.88,115.9-232.56,195.05-355.72,235.26C2398,1544,2333,1554.45,2267.83,1554.45Z"/><path class="cls-2" d="M2267.93,1627a831.18,831.18,0,0,1-109.39-7.29c-101.29-13.44-184.86-43.41-237.12-66.18-56.68-24.69-89.89-46.54-90.22-46.76l3.31-5c.33.22,33.24,21.85,89.53,46.36,51.93,22.6,134.94,52.34,235.54,65.67,113,15,224.74,6.58,332.1-24.91,134.23-39.38,262-115.21,379.74-225.4l4.1,4.38c-118.49,110.88-247.12,187.19-382.31,226.82A798.31,798.31,0,0,1,2267.93,1627Z"/><path class="cls-2" d="M2214.72,1711.86a821.52,821.52,0,0,1-109.46-7.26C2004,1691,1925.47,1660.31,1877.46,1637c-52.09-25.33-80.64-47.79-80.92-48l3.73-4.7c.28.22,28.48,22.39,80.11,47.45,47.63,23.13,125.51,53.52,226,67,113,15.14,231,6.24,350.78-26.45C2607,1631.38,2760,1553,2911.85,1439.19l3.6,4.8c-152.59,114.29-306.32,193.06-456.93,234.12C2376.1,1700.58,2294.47,1711.86,2214.72,1711.86Z"/><path class="cls-2" d="M2281.5,1777.1a1274.51,1274.51,0,0,1-172.17-11.57c-60.41-8.22-152.48-25.6-248-61.68-57.23-21.6-89-40-89.34-40.14l3-5.19c.31.18,31.82,18.37,88.69,39.81,52.48,19.8,137.89,46.5,246.8,61.3,122.4,16.64,248.91,15.17,376-4.37,158.92-24.42,319.26-77.31,476.56-157.2l2.72,5.35c-157.94,80.21-319,133.31-478.58,157.82A1355.78,1355.78,0,0,1,2281.5,1777.1Z"/><path class="cls-2" d="M2660.87,1846.64c-81.93,0-140.73-9.92-141.43-10l1-5.92c.83.15,84.33,14.22,191,8.66,62.56-3.26,120.73-12.55,172.88-27.6,65.08-18.77,120.92-46.62,166-82.78l3.76,4.68c-45.7,36.67-102.26,64.89-168.14,83.89-52.61,15.17-111.25,24.53-174.29,27.81C2694,1846.26,2677,1846.64,2660.87,1846.64Z"/><path class="cls-2" d="M2715.13,1971.08c-81.92,0-140.73-9.92-141.43-10l1-5.91c.83.14,84.33,14.22,191,8.65,62.56-3.26,120.73-12.54,172.88-27.59,65.08-18.78,120.92-46.63,166-82.78l3.76,4.68C3062.6,1894.75,3006,1923,2940.15,1942c-52.61,15.17-111.25,24.52-174.29,27.8C2748.24,1970.7,2731.23,1971.08,2715.13,1971.08Z"/><path class="cls-2" d="M2761.88,2110.42c-81.93,0-140.73-9.92-141.43-10l1-5.91c.83.14,84.33,14.22,191,8.65,62.56-3.26,120.72-12.54,172.88-27.59,65.07-18.78,120.91-46.63,166-82.78l3.75,4.68c-45.69,36.66-102.26,64.89-168.13,83.88-52.62,15.18-111.26,24.53-174.3,27.81C2795,2110,2778,2110.42,2761.88,2110.42Z"/><polygon class="cls-1" points="1518.14 1901.83 2025.27 1782.9 2574.21 1839.21 2152.34 2004.38 1518.14 1901.83"/><path d="M2152.67,2007.47l-650-105.1,522.37-122.51.5.06,561.26,57.57Zm-619.08-106.18,618.42,100,409.58-160.36-536.13-55Z"/><path d="M1466.56,1610.47l55.93-22a26.42,26.42,0,0,1,34.12,14.57l69.3,169.37a22.84,22.84,0,0,1-12.82,29.92l-27,10.57a22.84,22.84,0,0,1-27.26-8.48l-104.48-154.57A26.42,26.42,0,0,1,1466.56,1610.47Z"/><polygon class="cls-3" points="1580.43 1897.25 2026.64 1791.77 2528.81 1844.97 2154.44 1987.13 1580.43 1897.25"/><path d="M2154.76,1990.22l-589.9-92.38,461.59-109.11.51.06,514.67,54.52ZM1596,1896.65,2154.12,1984,2516,1846.63l-489.15-51.82Z"/><path class="cls-1" d="M1784.39,1929.18s343.32-136.85,526.59,3.49l-156.54,54.46Z"/><path d="M2154.72,1990.21l-.74-.11-380.88-59.65,10.18-4c.86-.35,87.39-34.54,195.22-51.07,63.41-9.72,121.69-11.53,173.24-5.39,64.64,7.7,118.82,28,161.06,60.35l4.42,3.38ZM1796.14,1928l358,56.06,150.5-52.36c-40.69-29.72-92.32-48.48-153.57-55.79-51-6.08-108.71-4.28-171.56,5.35C1894.25,1894.31,1822.37,1918.48,1796.14,1928Z"/><path d="M1919.4,1950.33s241.63-94.81,335.86-1.49l18-6.82s-79.93-122.83-394.39,2Z"/><path class="cls-1" d="M2142.21,1836.71s-2.75,23.85-68.79,36.69c-55,10.69-80.06,68.37-86.94,87.43l-26.56-4.16c13-40.62,53.16-90.81,92.17-95.43,52.28-6.19,51.19-19.15,51.19-19.15a24.21,24.21,0,0,0,12.66-2.66C2140.58,1828.24,2142.21,1836.71,2142.21,1836.71Z"/><path d="M1988.46,1964.18l-32.46-5.09,1.07-3.33c6.69-20.92,20.52-44.22,37-62.32,18.61-20.48,39.1-33,57.7-35.18,26.44-3.13,38.49-8,43.93-11.44,3.87-2.48,4.62-4.46,4.62-4.48l-.29-3.48,3.49.24a21.41,21.41,0,0,0,11-2.27l.25-.13c12.81-5.81,21.86-7.44,26.89-4.84a6.47,6.47,0,0,1,3.57,4.28l.09.46-.06.46c-.08.73-1.1,7.37-10.67,15.47-12.26,10.38-32.63,18.39-60.52,23.82-53.72,10.45-78.41,68.08-84.7,85.5Zm-24.56-9.92,20.62,3.23c7.77-20.48,33.74-76.41,88.33-87s64.51-28.79,66.1-33.18c-1.3-.75-6.25-2.14-21.66,4.83a27.36,27.36,0,0,1-11.77,3c-.87,1.85-2.73,4.25-6.61,6.74-8.69,5.58-24.33,9.73-46.46,12.35C2016.83,1868.44,1978,1914.31,1963.9,1954.26Z"/><path d="M3012.75,1855.67l-3.93-1.48c-.11,0-11.41-4.3-29.77-10.51-45.4-15.35-133-42.37-209.8-50.76-72.58-7.93-131.69-12.62-160.46-14.7-16.81-1.23-26.41-1.8-26.5-1.8l-2.76-.17-.07-2.75c-.05-2.19-5.6-219.38-15.5-260.78l5.83-1.4c9.55,40,14.9,232.68,15.6,259.28,4,.25,12.18.78,23.83,1.63,28.81,2.09,88,6.78,160.68,14.72,77.34,8.46,165.44,35.61,211.07,51,12.09,4.09,21.15,7.34,26,9.11.63-91.06-62.6-308.18-63.25-310.39l5.76-1.69c.66,2.26,66.14,227.12,63.41,316.44Z"/><polygon class="cls-1" points="1487.33 2340.71 1461.19 2332.46 1461.19 1855.63 1487.33 1860.56 1487.33 2340.71"/><path d="M1490.33,2344.81l-32.14-10.16V1852l32.14,6.06Zm-26.14-14.55,20.14,6.36V1863.05l-20.14-3.8Z"/><path d="M1487.52,1863.65l-37.85-7.14,41.59-14.66,38.51,8.28Zm-14.8-8.9,14.42,2.72,19.38-6.2-14.86-3.19Z"/><polygon class="cls-1" points="1518.14 1850.7 1518.14 2322.83 1487.33 2340.71 1487.33 1860.56 1518.14 1850.7"/><path d="M1484.33,2345.92V1858.37l36.81-11.78v478Zm6-483.17V2335.5l24.81-14.4V1854.81Z"/><path d="M2219.62,1751.51l-51.31-19.32,24.47,2.9c.09,0,9.8,1,22.61-4.13,17-6.83,31.77-21.41,42.75-42.17,20.12-38,14.76-80.56,14.7-81a8.29,8.29,0,0,1,4.17-8.22c5.15-3.12,13.29-2.29,19.79,2,5.36,3.55,13.95,12.37,11.21,31.54-4.36,30.54-16.45,72.54-49.26,99.23-19.81,16.1-37.61,18.92-38.36,19ZM2206.1,1740l14.12,5.32c3.44-.7,18.63-4.42,35-17.86,17.17-14.06,39.22-42,46.82-95.18,2.28-15.9-4.4-22.92-8.58-25.68-4.93-3.27-10.67-3.52-13.38-1.89a2.28,2.28,0,0,0-1.31,2.39c.23,1.72,5.68,44.73-15.35,84.49-14.83,28-33.3,40-46.18,45.07A66.87,66.87,0,0,1,2206.1,1740Z"/><path d="M2299.69,1627.13c-23.22,0-26.8-21-26.84-21.2l5.93-.94c.13.77,3.42,19,26.32,15.73l.85,5.94A44.06,44.06,0,0,1,2299.69,1627.13Z"/><path d="M2293.05,1648.12a19.06,19.06,0,0,1-8.77-2c-8.41-4.28-10.8-13.71-10.9-14.11l5.83-1.44c0,.07,1.88,7.23,7.83,10.22,4,2,9.12,1.78,15.2-.71l2.28,5.55A30.29,30.29,0,0,1,2293.05,1648.12Z"/><path class="cls-3" d="M2273.23,1654.9s7.42,18.39,24.65,10.45"/><path d="M2289.61,1670.34a17.58,17.58,0,0,1-6.56-1.25c-8.63-3.42-12.44-12.68-12.6-13.07l5.56-2.25c0,.07,3.06,7.31,9.28,9.75,3.36,1.33,7.17,1,11.33-.9l2.51,5.45A22.78,22.78,0,0,1,2289.61,1670.34Z"/><path class="cls-3" d="M2266.23,1678.43s3.68,16.39,24.44,6.16"/><path d="M2278.57,1691a15.9,15.9,0,0,1-7-1.51c-6.6-3.16-8.23-10.07-8.29-10.36l5.85-1.34a10.23,10.23,0,0,0,5.08,6.31c3.6,1.69,8.82.94,15.12-2.16l2.65,5.39C2287,1689.73,2282.54,1691,2278.57,1691Z"/><path class="cls-3" d="M2255.26,1699.68s1.91,15.94,20.56,10.45"/><path d="M2268.61,1714.29a16.31,16.31,0,0,1-9.19-2.58c-6.16-4.06-7.1-11.37-7.13-11.68l5.95-.73s.69,4.93,4.52,7.43c2.9,1.88,7,2.06,12.21.52l1.69,5.76A28.71,28.71,0,0,1,2268.61,1714.29Z"/><path class="cls-3" d="M2243.83,1714.5s-2.54,12.77,18.89,10.39"/><path d="M2257.78,1728.18c-6.46,0-11.19-1.59-14.1-4.76a11.47,11.47,0,0,1-2.79-9.5l5.88,1.17-2.94-.59,3,.55a5.44,5.44,0,0,0,1.37,4.37c1.59,1.68,5.35,3.48,14.24,2.49l.66,6A47.21,47.21,0,0,1,2257.78,1728.18Z"/><path class="cls-3" d="M2231.84,1725.19s4.26,13,14.75,12.18"/><path d="M2245.59,1740.42c-4.86,0-9.24-2.41-12.7-7a27.73,27.73,0,0,1-3.9-7.29l5.71-1.86-2.86.93,2.85-.94c0,.11,3.69,10.83,11.66,10.13l.49,6C2246.42,1740.4,2246,1740.42,2245.59,1740.42Z"/><path d="M2150.87,1965.26l-39.07-7.37,43-15.14,39.74,8.54Zm-16-9.13,15.64,2.95,20.8-6.65L2155.2,1949Z"/><polygon class="cls-1" points="1518.14 2322.83 2123.33 2429.22 2125.28 2000 1518.14 1901.83 1518.14 2322.83"/><path d="M2126.31,2432.79l-3.5-.61-607.67-106.84v-427l613.15,99.14Zm-605.17-112.48,599.21,105.34,1.91-423.09-601.12-97.2Z"/><polygon class="cls-1" points="2182.92 2416.38 2597.14 2267.79 2574.21 1839.21 2152.34 2004.38 2182.92 2416.38"/><path d="M2180.22,2420.54l-31-418.15,2.06-.8L2577,1834.9l23.28,435-2.11.76Zm-24.72-414.17,30.12,405.86L2594,2265.73l-22.59-422.22Z"/><path class="cls-1" d="M1808.91,1833.64s-162-81.4-166.57-95.57-3.67-39.86-7.34-48.11-44.94-53.2-44.94-53.2-37.61-8.25-47.7,0-33.93,21.31-19.26,30.84,46.78,6.77,46.78,6.77,63.29,100.58,59.62,108.53a15.18,15.18,0,0,1-11,8.87l40.57,77Z"/><path d="M1657.48,1872.23l-43.66-82.9,4.3-.54a12.18,12.18,0,0,0,8.54-6.9c0-7.17-29.36-58.21-58.36-104.4-7.22.44-33.38,1.35-46.83-7.38-3.9-2.53-5.92-5.6-6-9.13-.22-8,9.91-15.4,18.84-21.9,2.3-1.67,4.46-3.25,6.16-4.64,10.9-8.91,46.25-1.48,50.24-.61l.93.2.64.7c4.26,4.64,41.71,45.55,45.47,54,2,4.45,2.68,12.54,3.5,21.91.79,9.14,1.69,19.5,4,26.49,2.5,6.52,61.2,41.62,165.06,93.82l7.39,3.71Zm-34.66-78.68,37.81,71.78,139.58-32.73c-13.57-6.89-43.92-22.43-74.29-38.79-83.2-44.82-85.47-51.83-86.44-54.82-2.47-7.64-3.4-18.36-4.22-27.82-.73-8.46-1.43-16.46-3-20-2.51-5.66-27.3-33.73-43.77-51.69-14.13-3-37.84-5.63-44.23-.41-1.83,1.51-4.06,3.13-6.43,4.85-6.57,4.78-16.51,12-16.38,16.89,0,.54.06,2.17,3.29,4.26,13.65,8.86,44.57,6.32,44.88,6.3l1.83-.16,1,1.55c.16.25,16,25.48,31.23,51.36,31.52,53.63,29.67,57.64,28.57,60A18.49,18.49,0,0,1,1622.82,1793.55Z"/><path class="cls-1" d="M1451.1,1664.74s65.58-3,72,2.86,8.26,21,0,26-66.49,14.67-76.12-3.67S1451.1,1664.74,1451.1,1664.74Z"/><path d="M1479.81,1703.72a80.46,80.46,0,0,1-20.75-2.33c-7.35-2-12.31-5.41-14.74-10-3.73-7.1-4.7-13.55-2.88-19.19a18.08,18.08,0,0,1,8.32-10.11l.57-.28.64,0c.16,0,16.66-.75,33.72-.77h.6c35,0,38.38,3.09,39.83,4.41,4.44,4,7.07,11.72,6.4,18.68-.52,5.44-3,9.74-6.85,12.13C1519.49,1699.35,1498.93,1703.72,1479.81,1703.72Zm-27.83-36a12,12,0,0,0-4.86,6.4c-1.26,4-.42,8.89,2.51,14.46,1.63,3.11,5.34,5.48,11,7,19.84,5.47,55.17-1,60.89-4.54,3-1.86,3.82-5.55,4-7.58.49-5.12-1.39-10.87-4.47-13.68C1517.21,1666.77,1482.35,1666.35,1452,1667.7Z"/><path class="cls-1" d="M1493.29,1711.06s28.44-12.39,45.41-8.26,0,26.6-12.39,29.35-30.26,9.63-33,0S1484.05,1714.54,1493.29,1711.06Z"/><path d="M1501.94,1740.07c-5.55,0-10-1.73-11.53-7.09-.62-2.17-1.45-4.28-2.26-6.32-1.89-4.81-3.69-9.35-1.92-13.32,1-2.24,3-3.94,5.93-5.07,1.95-.84,29.75-12.64,47.24-8.38,6.06,1.47,9.5,5.38,9.44,10.73-.1,10.12-12.41,22.36-21.88,24.46-2.13.47-4.42,1.07-6.85,1.7C1514.17,1738.33,1507.5,1740.07,1501.94,1740.07Zm28.84-35.12c-15.73,0-36,8.75-36.29,8.86l-.14,0a4.41,4.41,0,0,0-2.64,1.91c-.74,1.68.66,5.24,2,8.69.82,2.07,1.75,4.42,2.45,6.87,1.46,5.11,13.08,2.08,22.42-.35,2.48-.65,4.82-1.26,7.06-1.76,7.48-1.66,17.12-12.12,17.18-18.66,0-1.7-.52-3.79-4.85-4.84A30.61,30.61,0,0,0,1530.78,1705Z"/><path class="cls-1" d="M1514.39,1745.45s28-16,34.85-12.38S1569,1751,1563,1758.29s-35.44,22.93-44.55,10.55S1511.64,1751.87,1514.39,1745.45Z"/><path d="M1529.29,1776.46h-.6c-5.57-.14-9.94-2.16-12.65-5.84-9.26-12.59-7.91-18.2-4.59-25.94l.58-1.33.87-.5c6.9-4,30-16.56,37.75-12.43,5.82,3.1,14.95,12.47,16.61,20.68a10.6,10.6,0,0,1-1.93,9.08C1560.6,1766,1542.73,1776.46,1529.29,1776.46Zm-12.54-28.9c-2.35,5.49-3.54,9.09,4.12,19.5,1.61,2.2,4.22,3.31,8,3.4,11.35.3,27.9-9.21,31.84-14.06a4.71,4.71,0,0,0,.71-4.11c-1.23-6.08-9-14.12-13.55-16.57C1545,1734.2,1530.62,1739.71,1516.75,1747.56Z"/><path class="cls-1" d="M1532.27,1779.39s3.21,17,18.81,17.42,28-17.42,22.93-26.14S1536.86,1761,1532.27,1779.39Z"/><path d="M1551.69,1799.82h-.7c-14.24-.42-20.4-13.18-21.66-19.87l-.13-.64.16-.64c2.23-8.9,10.2-14.94,21.89-16.59,9.52-1.34,21.64.69,25.35,7.1,2.54,4.37,1.91,10.57-1.67,16.58C1571,1792.3,1562.63,1799.82,1551.69,1799.82Zm-16.32-20.36c.71,2.85,4.26,14,15.8,14.35,8.11.27,15.19-5.42,18.6-11.14,2.42-4.05,3-8.07,1.64-10.49-1.74-3-10.37-5.43-19.33-4.17C1547.87,1768.61,1538,1770.9,1535.37,1779.46Z"/><polygon class="cls-1" points="1620.03 1795.76 1682.75 1913.27 1647.72 1907.78 1588.85 1811.82 1620.03 1795.76"/><path d="M1688.23,1917.16l-42.34-6.63-61.29-99.9,36.69-18.89ZM1649.56,1905l27.71,4.34-58.49-109.59L1593.1,1813Z"/><path class="cls-1" d="M2775.07,2168.73c-282.49,68.79-492.53-286.16-548.48-294.42s-76.13-27.51-84.38-37.6-32.23,9.83-41.32,4.58c-15.09-8.71-3.19-30.59-3.19-30.59-4.45-14.12,3.23-23.19,3.23-27.8,0-17.89,13.76-28.74,13.76-28.74s15.59-48.61,19.26-57,61.46,12.08,70.63,14.83,62.37,69.71,101.81,105.94,288.91,72.91,288.91,72.91c8.23-10.76,12.09-76.13,13.7-115.6,31.72,2.3,89.54,7,160.57,14.71,77.2,8.44,165.42,35.68,210.44,50.91C2985.37,1952,2961.54,2123.32,2775.07,2168.73Z"/><path d="M2702,2180.53a321.92,321.92,0,0,1-74.42-8.83c-42.61-10.11-86.43-29.23-130.26-56.82-80.09-50.43-146.61-120-195.18-170.79-34.57-36.16-61.88-64.72-76-66.81-41.23-6.08-70.25-19.09-86.26-38.67-3.19-3.9-11.48-.72-19.5,2.35s-15.69,6-21,2.93c-13.35-7.71-9.31-24.65-4.91-33.5-2.85-10.31.14-18.06,2.13-23.25a17.55,17.55,0,0,0,1.32-4.24c0-16.88,11.14-27.81,14.17-30.47,2.13-6.64,15.64-48.54,19.1-56.49,3.57-8.19,26.62-2.41,67.9,11.11,2.85.94,5.1,1.68,6.34,2,5.12,1.53,17.37,15,40.39,40.68,19.07,21.27,42.8,47.74,62.59,65.92,36.51,33.54,262,68.33,285.38,71.86,5.28-10.36,9.69-50.87,12.21-112.46l.12-3.09,3.09.22c28.81,2.09,88,6.78,160.68,14.72,77.34,8.46,165.44,35.61,211.07,51l1.94.66.1,2c2.44,50.69-.92,124.8-30.8,190-33.54,73.18-92.9,120.6-176.43,140.94A311.09,311.09,0,0,1,2702,2180.53Zm-566.64-349.71a11.12,11.12,0,0,1,9.14,4c15,18.39,42.79,30.68,82.5,36.54,16.17,2.38,42.73,30.15,79.48,68.59,48.36,50.57,114.58,119.83,194,169.86,43.26,27.24,86.48,46.1,128.45,56.06,48.81,11.57,97.71,11.56,145.36,0l.71,2.91-.71-2.91c81.66-19.89,139.66-66.18,172.39-137.61,16.1-35.12,34.36-95.67,30.36-185.18-45.92-15.46-132.16-41.84-207.86-50.11-70.08-7.66-127.6-12.29-157.38-14.48-2.83,67.19-7.61,105.6-14.18,114.2l-1.08,1.41-1.74-.26c-.63-.09-63.22-9.34-129.83-22.9-89.85-18.29-143.91-35.37-160.68-50.77-20-18.38-43.84-45-63-66.33-15.85-17.69-33.82-37.73-37.64-38.94-1.32-.4-3.6-1.15-6.49-2.09-8.45-2.77-22.59-7.41-35.41-10.73-20.15-5.21-24.47-3.86-25.21-3.47-3.74,8.78-18.91,56-19.06,56.52l-.28.87-.72.57c-.12.09-12.62,10.23-12.62,26.38,0,1.93-.76,3.9-1.72,6.4-1.88,4.89-4.46,11.58-1.65,20.5l.39,1.22-.61,1.12c-.43.78-10.31,19.42,2,26.55,2.84,1.64,9.75-1,15.86-3.34C2123.94,1833.17,2130.09,1830.82,2135.39,1830.82Z"/><path d="M2175.54,1734.6c.61-.92-33.94,5.81-60.84,19.56,0,0,35.46-36.38,44.94-31.79A53.68,53.68,0,0,1,2175.54,1734.6Z"/><path d="M2101.9,1785.74l-1.93-5.68c14.41-4.91,52.31-12,53.92-12.33l1.1,5.89C2154.6,1773.69,2115.91,1781,2101.9,1785.74Z"/><path d="M2098.61,1813.56l-1.82-5.71a399.77,399.77,0,0,1,43.36-10.78l1.07,5.91A393.78,393.78,0,0,0,2098.61,1813.56Z"/><path d="M2595.3,1890.82s71.78,13.08,117.87,24.77-2.07-75.67-49.53-76.36-59.79,12.15-59.79,12.15Z"/><polyline class="cls-4" points="2007.95 1964.19 1986.48 1960.83 1959.92 1956.67 1929.16 1951.85"/><path class="cls-3" d="M2113.52,1840.29s18.06-5.47,16,12.33"/><path d="M2132.54,1853l-6-.68c.45-4-.2-6.8-1.95-8.26-2.82-2.36-8.35-1.42-10.25-.85l-1.73-5.75c1-.31,10-2.85,15.81,2C2131.87,1842.24,2133.24,1846.8,2132.54,1853Z"/><path class="cls-3" d="M2094.87,1850.75s16.46-4.1,15.62,12.14"/><path d="M2113.49,1863.05l-6-.31c.19-3.66-.61-6.26-2.38-7.73-2.79-2.32-7.82-1.76-9.53-1.34l-1.44-5.83c.37-.09,9.06-2.18,14.77,2.53C2112.24,1853.11,2113.78,1857.37,2113.49,1863.05Z"/><path class="cls-3" d="M2064,1859.58s17.71-5.08,17.36,12.17"/><path d="M2084.33,1871.81l-6-.12c.08-3.89-.88-6.63-2.84-8.14-3.83-2.94-10.62-1.1-10.69-1.08l-1.66-5.77c.4-.11,9.75-2.72,16,2.09C2082.7,1861.53,2084.45,1865.91,2084.33,1871.81Z"/><path class="cls-3" d="M2085.5,1854.61s11.89-3.59,11.25,13.1"/><path d="M2099.75,1867.83l-6-.23c.17-4.67-.7-7.9-2.53-9.34-2-1.56-4.86-.78-4.89-.77l-1.7-5.75c.23-.08,5.77-1.69,10.23,1.75C2098.37,1856.19,2100,1861,2099.75,1867.83Z"/><path class="cls-3" d="M2043.8,1862.89s16.18-6.86,16.25,14.21"/><path d="M2057.05,1877.11c0-4-.69-9.19-3.82-11.26-3.32-2.19-8.21-.22-8.26-.2l-2.34-5.52c.32-.13,7.87-3.26,13.91.72,4.29,2.83,6.48,8.3,6.51,16.24Z"/><path class="cls-3" d="M2019.16,1875s18.35-10.29,21.86,11.6"/><path d="M2038.06,1887.07c-.9-5.63-2.89-9.23-5.92-10.69-4.87-2.35-11.45,1.19-11.51,1.23l-2.94-5.24c.38-.21,9.33-5.13,17.07-1.39,4.89,2.37,8,7.46,9.22,15.14Z"/><path class="cls-3" d="M2001.14,1890.32s19.27-14,22.62,10.24"/><path d="M2020.78,1901c-.58-4.21-2-9.57-5.73-11.14-5-2.12-12.08,2.87-12.15,2.92l-3.52-4.86c.4-.29,9.88-7.05,18-3.58,5,2.15,8.17,7.48,9.33,15.84Z"/><path class="cls-3" d="M1985.83,1908.08s14.37-11.18,22.89,10.2"/><path d="M2005.94,1919.39c-2.49-6.23-5.62-9.91-9.32-10.93-4.58-1.27-8.92,2-9,2l-3.67-4.74c.27-.21,6.66-5.1,14.16-3.07,5.64,1.53,10.13,6.42,13.36,14.52Z"/><path class="cls-3" d="M1973.12,1927.36s16.18-9.89,25.11,7.63"/><path d="M1995.55,1936.35c-2.28-4.49-5.26-7.28-8.85-8.31-6-1.7-12,1.85-12,1.88l-3.12-5.12c.33-.2,8.24-5,16.75-2.54,5.28,1.49,9.52,5.31,12.6,11.36Z"/><path class="cls-1" d="M1824.55,1931.21s-54.66-45.06-13.35-143c13.77-32.66,45.44-16.48,38.08-6.64,0,0-27.33,34.23-29.75,78.7-3.24,59.5,34,76.24,34,76.24Z"/><path d="M1877.18,1943.87l-53.93-9.85-.61-.5c-.58-.48-14.39-12.06-23.08-36.07-14.38-39.77-3.11-82,8.87-110.42,7.53-17.85,19.43-21,25.86-21.26,7.78-.33,15.19,3.14,18,8.46a8.26,8.26,0,0,1-.6,9.12c-.33.41-26.83,34.12-29.17,77.06-3.09,56.79,31.84,73.19,32.19,73.35Zm-51.27-15.46,14.85,2.71a66.74,66.74,0,0,1-7.86-8.61c-8.42-11-18.09-30.77-16.37-62.42,2.44-44.92,29.27-79,30.41-80.41a2.26,2.26,0,0,0,0-2.64c-1.48-2.8-6.54-5.52-12.44-5.28-5,.22-14.35,2.8-20.59,17.6-11.52,27.32-22.41,67.84-8.88,105.7C1812.22,1915,1823.33,1926,1825.91,1928.41Z"/><path d="M1833.32,1790.57c-5.69,0-12.4-2-19.78-8l3.78-4.65c7.59,6.17,15,8.08,22,5.69A21.39,21.39,0,0,0,1848,1778l4.6,3.86C1852.48,1781.94,1845.06,1790.57,1833.32,1790.57Z"/><path d="M1823.4,1810.39c-.42,0-.85,0-1.28-.05-6.32-.44-12.07-4.09-17.1-10.84l4.81-3.59c3.94,5.29,8.21,8.13,12.71,8.44,6.58.49,11.87-4.67,11.92-4.72l4.26,4.23C1838.45,1804.14,1832.14,1810.39,1823.4,1810.39Z"/><path class="cls-3" d="M1827,1823.59s-15.83,12-26.5-3.74"/><path d="M1814.34,1830.94a18.42,18.42,0,0,1-3-.24c-5.25-.87-9.71-4-13.26-9.16l5-3.38c2.59,3.8,5.71,6,9.28,6.62,6.53,1.07,12.87-3.54,12.93-3.59l3.62,4.79C1828.55,1826.21,1822.18,1830.94,1814.34,1830.94Z"/><path class="cls-3" d="M1820.93,1847.37s-11.6,12.15-24.13-7.31"/><path d="M1812,1854.12a12.65,12.65,0,0,1-1.36-.07c-6-.57-11.46-4.73-16.38-12.36l5-3.25c3.8,5.9,7.9,9.23,11.85,9.63a10.2,10.2,0,0,0,7.6-2.79l4.33,4.16A16.51,16.51,0,0,1,1812,1854.12Z"/><path class="cls-3" d="M1819.38,1871.23s-9.84,12.69-23-1.63"/><path d="M1809,1879.41c-5.1,0-10.09-2.61-14.83-7.78l4.41-4.06c3.68,4,7.29,6,10.74,5.84,4.56-.17,7.66-4,7.69-4l4.73,3.69c-.19.25-4.75,6-12.12,6.34Z"/><path class="cls-3" d="M1821.55,1889.82s-4.4,12.25-21.54-.82"/><path d="M1813.63,1898c-4.47,0-9.64-2.22-15.44-6.64l3.63-4.78c7.12,5.43,11.27,5.83,13.49,5.2a5.42,5.42,0,0,0,3.43-3l5.63,2.07a11.47,11.47,0,0,1-7.28,6.7A12,12,0,0,1,1813.63,1898Z"/><path class="cls-3" d="M1826.32,1905.15s-10.37,9-18.92,2.85"/><path d="M1814.08,1913.16a14.18,14.18,0,0,1-8.43-2.72l3.5-4.87c6.55,4.7,15.12-2.61,15.2-2.68l3.94,4.53a27.72,27.72,0,0,1-7.1,4.24A18.92,18.92,0,0,1,1814.08,1913.16Z"/><polygon class="cls-1" points="2150.68 2464.53 2123.33 2455.9 2123.33 1957.01 2150.68 1962.17 2150.68 2464.53"/><path d="M2153.68,2468.63l-33.35-10.54v-504.7l33.35,6.29Zm-27.35-14.93,21.35,6.74V1964.66l-21.35-4Z"/><polygon class="cls-1" points="2182.92 1951.86 2182.92 2445.82 2150.68 2464.53 2150.68 1962.17 2182.92 1951.86"/><path d="M2147.68,2469.74V1960l38.24-12.23v499.8Zm6-505.38v495l26.24-15.23V1956Z"/><ellipse cx="2230.89" cy="2060.51" rx="14.45" ry="18.92"/><ellipse cx="2230.89" cy="2126.88" rx="14.45" ry="18.92"/><ellipse cx="2230.89" cy="2193.25" rx="14.45" ry="18.92"/><ellipse cx="2230.89" cy="2259.61" rx="14.45" ry="18.92"/><ellipse cx="2230.89" cy="2325.98" rx="14.45" ry="18.92"/><path d="M3012.63,1854.6s-8.25,13.53-32,16.05l-.66-29.81Z"/><path d="M1929.16,1759.41s14.94-128.92,16.31-172.79c0,0-43.11,63-40.35,93.71s-54.83,64-54.83,64Z"/><path d="M2973.68,1950.33s4,117.79-52.57,203.18l-160.44,23.07S2955.31,2130.9,2973.68,1950.33Z"/><path d="M2274.44,1339.45c-63.85,0-127.51-33-189.62-98.39l4.35-4.13c68.95,72.59,139.56,104.49,209.88,94.83,31.11-4.27,62.34-16.76,92.82-37.13,24.49-16.35,48.55-37.79,71.51-63.71,39.19-44.24,61.87-86.75,62.09-87.18l5.3,2.81c-.22.43-23.17,43.47-62.8,88.24-23.31,26.33-47.76,48.12-72.69,64.78-31.26,20.9-63.36,33.73-95.39,38.13A186.17,186.17,0,0,1,2274.44,1339.45Z"/><path d="M1371.76,1731.48a3,3,0,0,1-3-2.65c-4.24-36.72-.21-69.79,12-98.28a157,157,0,0,1,44.58-59.27c33.64-28,69-36.17,70.51-36.5a3,3,0,1,1,1.31,5.85c-.35.08-35.63,8.26-68.17,35.42a150.92,150.92,0,0,0-42.77,57c-11.73,27.49-15.59,59.48-11.47,95.09a3,3,0,0,1-2.64,3.32A2.06,2.06,0,0,1,1371.76,1731.48Z"/><path d="M1315.82,1651.69a2.83,2.83,0,0,1-1-.16,3,3,0,0,1-1.93-3.7c0-.14.1-.42.18-.81,6.94-31.63,51.66-189.43,251.4-190.28a3,3,0,0,1,3,3,3,3,0,0,1-3,3c-195.17.83-238.8,154.72-245.57,185.56a11.63,11.63,0,0,1-.32,1.33A3,3,0,0,1,1315.82,1651.69Z"/><circle class="cls-2" cx="3200.88" cy="1176.94" r="115.88"/><path class="cls-2" d="M3052.15,1038.53a56.12,56.12,0,1,1,19.43-108.78h0a56.12,56.12,0,0,1-19.43,108.78Zm.1-106.23a50.13,50.13,0,1,0,17.26,3.09h0A49.75,49.75,0,0,0,3052.25,932.3Z"/><path d="M1335.82,2467.53a3,3,0,0,1-2.63-1.55c-71.08-129-125.83-258.05-162.73-383.69-33.56-114.25-53.11-228.22-58.12-338.73-8.44-186.18,23.71-366.09,95.56-534.76,63.92-150,148.08-263.21,207.43-331.73,64.33-74.28,114.27-113.62,114.77-114a3,3,0,0,1,3.7,4.73c-.5.38-50.11,39.48-114.11,113.41-59.06,68.21-142.8,180.87-206.38,330.22-71.44,167.81-103.39,346.82-95,532.06,5,110,24.49,223.46,57.91,337.23,36.77,125.18,91.34,253.83,162.19,382.37a3,3,0,0,1-2.62,4.45Z"/></svg>