<?xml version="1.0" encoding="UTF-8"?><svg xmlns="http://www.w3.org/2000/svg" version="1.1" viewBox="0 0 1280 720" width="1280" height="720" x="0px" y="0px" xmlns:xlink="http://www.w3.org/1999/xlink">
<defs/><!--ITEM: Illustration background 1--><g transform="translate(-974.0 -1016.0) rotate(0.0 1572.5 1572.5) translate(0.0 0.0) scale(9.87717132887997 9.87717132887997)"><svg width="312.6401170111288" height="312.6401170111288" viewBox="0.0 0.0 312.6401170111288 312.6401170111288"><g>
	<path fill="#002652" d="M78.48,173.978c-10,41,12,84,50,104c16,8,33,15,52,16c21,0,42-3,62-10c22-8,40-24,57-40c-18,20-40,36-66,45   c-38,13-79,11-115-9c-35-21-58-57-58-97c0-26,11-52,31-70c-37,22-50,69-38,109c8,24,20,45,40,62c30,25,67,35,105,34   c-44,3-87-11-119-43c-36-37-50-92-28-139c17-35,53-60,93-57c-26-8-52-1-74,15c-28,21-44,53-46,87c-2,45,17,88,50,118   c-39-33-60-85-51-138c5-29,19-54,42-74c25-21,55-30,87-25c21,3,39,14,53,30c-18-33-57-46-93-41c-31,4-57,19-78,43   c-25,30-35,67-34,105c-5-60,26-120,81-146c26-12,54-15,83-8c44,12,78,52,75,99c11-36-8-72-36-95c-31-24-69-30-107-21   c-30,8-57,23-77,47c12-14,25-25,41-35c16-8,31-13,49-17c39-7,77,2,108,28c30,26,46,62,39,102c-5,21-14,39-30,52c49-27,54-95,24-141   c-30-44-79-67-131-63c35-3,70,5,101,27c44,31,66,83,53,136c-12,45-53,78-99,76c17,3,34,3,50-3c28-11,50-34,61-63   c21-55,1-116-42-155c13,12,25,26,35,42c8,15,13,31,17,48c8,47-7,92-43,123c-20,16-44,25-69,26c-26,0-52-11-70-31   c21,37,68,50,108,38c62-18,101-82,96-145c4,44-11,87-42,119c-22,21-50,35-81,38c-49,4-99-24-113-73   C79.48,193.978,78.48,183.978,78.48,173.978L78.48,173.978z"/>
</g>
<circle fill="#002652" cx="159.205" cy="159.205" r="70"/>
</svg></g><!--ITEM: Illustration component 2--><g transform="translate(375.0 95.0) rotate(0.0 59.0 64.0) translate(0.0 0.0) scale(3.579554072501137 3.5746201966041107)"><svg width="32.12690677966102" height="34.96875" viewBox="0.0 0.0 32.12690677966102 34.96875"><g>
	<path fill="#FFFFFF" d="M15.589,7.072h1.79v21.664h-1.79V7.072z"/>
	<path fill="#FFFFFF" d="M6.358,13.271l0.874-1.563l19.303,10.786l-0.874,1.563L6.358,13.271z"/>
	<path fill="#FFFFFF" d="M6.359,22.539l19.3-10.79l0.874,1.563l-19.3,10.79L6.359,22.539z"/>
	<path fill="#FFFFFF" d="M10.316,9.064l1.535-0.921l11.652,19.422l-1.535,0.921L10.316,9.064z"/>
	<path fill="#FFFFFF" d="M9.419,27.64L21.074,8.22l1.535,0.921l-11.656,19.42L9.419,27.64z"/>
	<path fill="#FFFFFF" d="M4.847,17.009h23.275v1.79H4.847V17.009z"/>
	<path fill="#FFFFFF" d="M12.904,9.4c0,0.716-0.627,1.343-1.343,1.343s-1.343-0.627-1.343-1.343s0.627-1.343,1.343-1.343   S12.904,8.684,12.904,9.4z M29.017,17.904c0,0.716-0.627,1.343-1.343,1.343c-0.716,0-1.343-0.627-1.343-1.343   c0-0.716,0.627-1.343,1.343-1.343C28.391,16.561,29.017,17.188,29.017,17.904z M6.637,17.904c0,0.716-0.627,1.343-1.343,1.343   s-1.343-0.627-1.343-1.343c0-0.716,0.627-1.343,1.343-1.343S6.637,17.188,6.637,17.904z M23.646,27.304   c0,0.716-0.627,1.343-1.343,1.343s-1.343-0.627-1.343-1.343s0.627-1.343,1.343-1.343S23.646,26.588,23.646,27.304z M22.751,9.4   c0,0.716-0.627,1.343-1.343,1.343s-1.343-0.627-1.343-1.343s0.627-1.343,1.343-1.343S22.751,8.684,22.751,9.4z M12.008,27.304   c0,0.716-0.627,1.343-1.343,1.343c-0.716,0-1.343-0.627-1.343-1.343s0.627-1.343,1.343-1.343   C11.382,25.961,12.008,26.588,12.008,27.304z"/>
	<path fill="#FFFFFF" d="M0,26.057l7.179-4.037l0.877,1.56l-7.179,4.037L0,26.057z"/>
	<path fill="#FFFFFF" d="M25.298,11.938l6.791-3.814l0.876,1.561l-6.791,3.814L25.298,11.938z"/>
	<path fill="#FFFFFF" d="M31.972,15.577l-7.699-1.969l2.059-7.609l1.701,0.537l-1.522,5.729l5.908,1.611L31.972,15.577z    M6.637,29.811l-1.701-0.537l1.522-5.729L0.55,21.933l0.448-1.701l7.699,1.969L6.637,29.811z M15.589,0h1.79v8.057h-1.79V0z"/>
	<path fill="#FFFFFF" d="M16.484,9.221l-5.64-5.461l1.253-1.253l4.387,4.207l4.387-4.207l1.253,1.253L16.484,9.221z M15.589,27.752   h1.79v8.057h-1.79V27.752z"/>
	<path fill="#FFFFFF" d="M20.871,33.302l-4.387-4.207l-4.387,4.207l-1.253-1.253l5.64-5.461l5.64,5.461L20.871,33.302z    M32.061,27.662l-0.806-0.448c-1.969-1.074-3.849-2.148-5.819-3.312l-0.806-0.448l0.895-1.522l0.806,0.448   c1.969,1.074,3.849,2.148,5.819,3.312l0.806,0.448L32.061,27.662z"/>
	<path fill="#FFFFFF" d="M26.332,29.811l-2.059-7.609l7.699-1.969l0.448,1.701l-5.908,1.611l1.522,5.729L26.332,29.811z"/>
	<path fill="#FFFFFF" d="M0.03,9.707l0.874-1.563l7.267,4.062l-0.874,1.563L0.03,9.707z"/>
	<path fill="#FFFFFF" d="M0.997,15.577L0.55,13.876l5.908-1.611L4.936,6.535l1.701-0.537l2.059,7.609L0.997,15.577z"/>
</g>
</svg></g><!--ITEM: Illustration component 3--><g transform="translate(180.0 254.0) rotate(0.0 55.0 60.0) translate(0.0 0.0) scale(3.341433778857837 3.351206434316354)"><svg width="32.32145454545454" height="34.9128" viewBox="0.0 0.0 32.32145454545454 34.9128"><g>
	<path fill="#FFFFFF" d="M15.556,7.072h1.79v21.664h-1.79V7.072z"/>
	<path fill="#FFFFFF" d="M6.325,13.271l0.874-1.563l19.303,10.786l-0.874,1.563L6.325,13.271z"/>
	<path fill="#FFFFFF" d="M6.326,22.539l19.3-10.79l0.874,1.563l-19.3,10.79L6.326,22.539z"/>
	<path fill="#FFFFFF" d="M16.451,29.094l-4.207-4.028l-5.819-1.522l1.522-5.64l-1.522-5.64l5.819-1.522l4.207-4.028l4.207,4.028   l5.819,1.522l-1.611,5.64l1.522,5.64l-5.819,1.522L16.451,29.094z M8.663,22.201l4.476,1.164l3.312,3.223l3.312-3.223l4.476-1.164   l-1.253-4.297l1.164-4.297l-4.476-1.164l-3.223-3.223l-3.312,3.223l-4.476,1.164l1.164,4.297L8.663,22.201z"/>
	<path fill="#FFFFFF" d="M15.556,27.752h1.79v8.057h-1.79V27.752z M15.556,0h1.79v8.057h-1.79V0z"/>
	<path fill="#FFFFFF" d="M24.719,23.493l0.884-1.557l7.317,4.156l-0.884,1.557L24.719,23.493z"/>
	<path fill="#FFFFFF" d="M0.029,9.733L0.902,8.17l7.111,3.975l-0.874,1.563L0.029,9.733z"/>
	<path fill="#FFFFFF" d="M0,26.089l7.345-4.105l0.874,1.563l-7.345,4.105L0,26.089z"/>
	<path fill="#FFFFFF" d="M24.702,12.281l7.267-4.062l0.874,1.563l-7.267,4.062L24.702,12.281z"/>
	<path fill="#FFFFFF" d="M16.451,9.221l-5.64-5.461l1.253-1.253l4.387,4.207l4.387-4.207l1.253,1.253L16.451,9.221z M20.838,33.302   l-4.387-4.207l-4.387,4.207l-1.253-1.253l5.64-5.461l5.64,5.461L20.838,33.302z M0.964,15.577l-0.448-1.701l5.908-1.611   L4.903,6.535l1.701-0.537l2.059,7.609L0.964,15.577z M26.299,29.81l-2.059-7.609l7.699-1.969l0.448,1.701l-5.908,1.611L28,29.273   L26.299,29.81z M31.938,15.577l-7.699-1.969l2.059-7.609l1.701,0.537l-1.522,5.729l5.908,1.611L31.938,15.577z M6.604,29.81   l-1.701-0.537l1.522-5.729l-5.908-1.611l0.448-1.701l7.699,1.969L6.604,29.81z"/>
</g>
</svg></g><!--ITEM: Illustration component 4--><g transform="translate(1020.0 306.0) rotate(0.0 53.0 58.0) translate(0.0 0.0) scale(3.215531624450174 3.2394995531724753)"><svg width="32.343018867924535" height="34.88193103448276" viewBox="0.0 0.0 32.343018867924535 34.88193103448276"><g>
	<path fill="#FFFFFF" d="M15.589,7.072h1.79v21.664h-1.79V7.072z"/>
	<path fill="#FFFFFF" d="M6.358,13.271l0.874-1.563l19.303,10.786l-0.874,1.563L6.358,13.271z"/>
	<path fill="#FFFFFF" d="M6.359,22.539l19.3-10.79l0.874,1.563l-19.3,10.79L6.359,22.539z"/>
	<path fill="#FFFFFF" d="M10.316,9.064l1.535-0.921l11.652,19.422l-1.535,0.921L10.316,9.064z"/>
	<path fill="#FFFFFF" d="M9.419,27.64L21.074,8.22l1.535,0.921l-11.656,19.42L9.419,27.64z"/>
	<path fill="#FFFFFF" d="M4.847,17.009h23.275v1.79H4.847V17.009z"/>
	<path fill="#FFFFFF" d="M12.904,9.4c0,0.716-0.627,1.343-1.343,1.343s-1.343-0.627-1.343-1.343s0.627-1.343,1.343-1.343   S12.904,8.684,12.904,9.4z M29.017,17.904c0,0.716-0.627,1.343-1.343,1.343c-0.716,0-1.343-0.627-1.343-1.343   c0-0.716,0.627-1.343,1.343-1.343C28.391,16.561,29.017,17.188,29.017,17.904z M6.637,17.904c0,0.716-0.627,1.343-1.343,1.343   s-1.343-0.627-1.343-1.343c0-0.716,0.627-1.343,1.343-1.343S6.637,17.188,6.637,17.904z M23.646,27.304   c0,0.716-0.627,1.343-1.343,1.343s-1.343-0.627-1.343-1.343s0.627-1.343,1.343-1.343S23.646,26.588,23.646,27.304z M22.751,9.4   c0,0.716-0.627,1.343-1.343,1.343s-1.343-0.627-1.343-1.343s0.627-1.343,1.343-1.343S22.751,8.684,22.751,9.4z M12.008,27.304   c0,0.716-0.627,1.343-1.343,1.343c-0.716,0-1.343-0.627-1.343-1.343s0.627-1.343,1.343-1.343   C11.382,25.961,12.008,26.588,12.008,27.304z"/>
	<path fill="#FFFFFF" d="M0,26.057l7.179-4.037l0.877,1.56l-7.179,4.037L0,26.057z"/>
	<path fill="#FFFFFF" d="M25.298,11.938l6.791-3.814l0.876,1.561l-6.791,3.814L25.298,11.938z"/>
	<path fill="#FFFFFF" d="M31.972,15.577l-7.699-1.969l2.059-7.609l1.701,0.537l-1.522,5.729l5.908,1.611L31.972,15.577z    M6.637,29.811l-1.701-0.537l1.522-5.729L0.55,21.933l0.448-1.701l7.699,1.969L6.637,29.811z M15.589,0h1.79v8.057h-1.79V0z"/>
	<path fill="#FFFFFF" d="M16.484,9.221l-5.64-5.461l1.253-1.253l4.387,4.207l4.387-4.207l1.253,1.253L16.484,9.221z M15.589,27.752   h1.79v8.057h-1.79V27.752z"/>
	<path fill="#FFFFFF" d="M20.871,33.302l-4.387-4.207l-4.387,4.207l-1.253-1.253l5.64-5.461l5.64,5.461L20.871,33.302z    M32.061,27.662l-0.806-0.448c-1.969-1.074-3.849-2.148-5.819-3.312l-0.806-0.448l0.895-1.522l0.806,0.448   c1.969,1.074,3.849,2.148,5.819,3.312l0.806,0.448L32.061,27.662z"/>
	<path fill="#FFFFFF" d="M26.332,29.811l-2.059-7.609l7.699-1.969l0.448,1.701l-5.908,1.611l1.522,5.729L26.332,29.811z"/>
	<path fill="#FFFFFF" d="M0.03,9.707l0.874-1.563l7.267,4.062l-0.874,1.563L0.03,9.707z"/>
	<path fill="#FFFFFF" d="M0.997,15.577L0.55,13.876l5.908-1.611L4.936,6.535l1.701-0.537l2.059,7.609L0.997,15.577z"/>
</g>
</svg></g><!--ITEM: Illustration component 5--><g transform="translate(795.0 376.0) rotate(0.0 57.5 62.5) translate(0.0 0.0) scale(3.493317132442284 3.490840035746202)"><svg width="32.061217391304346" height="34.948608" viewBox="0.0 0.0 32.061217391304346 34.948608"><g>
	<path fill="#FFFFFF" d="M15.556,7.072h1.79v21.664h-1.79V7.072z"/>
	<path fill="#FFFFFF" d="M6.325,13.271l0.874-1.563l19.303,10.786l-0.874,1.563L6.325,13.271z"/>
	<path fill="#FFFFFF" d="M6.326,22.539l19.3-10.79l0.874,1.563l-19.3,10.79L6.326,22.539z"/>
	<path fill="#FFFFFF" d="M16.451,29.094l-4.207-4.028l-5.819-1.522l1.522-5.64l-1.522-5.64l5.819-1.522l4.207-4.028l4.207,4.028   l5.819,1.522l-1.611,5.64l1.522,5.64l-5.819,1.522L16.451,29.094z M8.663,22.201l4.476,1.164l3.312,3.223l3.312-3.223l4.476-1.164   l-1.253-4.297l1.164-4.297l-4.476-1.164l-3.223-3.223l-3.312,3.223l-4.476,1.164l1.164,4.297L8.663,22.201z"/>
	<path fill="#FFFFFF" d="M15.556,27.752h1.79v8.057h-1.79V27.752z M15.556,0h1.79v8.057h-1.79V0z"/>
	<path fill="#FFFFFF" d="M24.719,23.493l0.884-1.557l7.317,4.156l-0.884,1.557L24.719,23.493z"/>
	<path fill="#FFFFFF" d="M0.029,9.733L0.902,8.17l7.111,3.975l-0.874,1.563L0.029,9.733z"/>
	<path fill="#FFFFFF" d="M0,26.089l7.345-4.105l0.874,1.563l-7.345,4.105L0,26.089z"/>
	<path fill="#FFFFFF" d="M24.702,12.281l7.267-4.062l0.874,1.563l-7.267,4.062L24.702,12.281z"/>
	<path fill="#FFFFFF" d="M16.451,9.221l-5.64-5.461l1.253-1.253l4.387,4.207l4.387-4.207l1.253,1.253L16.451,9.221z M20.838,33.302   l-4.387-4.207l-4.387,4.207l-1.253-1.253l5.64-5.461l5.64,5.461L20.838,33.302z M0.964,15.577l-0.448-1.701l5.908-1.611   L4.903,6.535l1.701-0.537l2.059,7.609L0.964,15.577z M26.299,29.81l-2.059-7.609l7.699-1.969l0.448,1.701l-5.908,1.611L28,29.273   L26.299,29.81z M31.938,15.577l-7.699-1.969l2.059-7.609l1.701,0.537l-1.522,5.729l5.908,1.611L31.938,15.577z M6.604,29.81   l-1.701-0.537l1.522-5.729l-5.908-1.611l0.448-1.701l7.699,1.969L6.604,29.81z"/>
</g>
</svg></g><!--ITEM: Illustration component 6--><g transform="translate(835.0 166.0) rotate(0.0 42.5 46.5) translate(0.0 0.0) scale(2.5784923403609885 2.5971849865951744)"><svg width="32.18935294117648" height="35.03793548387097" viewBox="0.0 0.0 32.18935294117648 35.03793548387097"><g>
	<path fill="#FFFFFF" d="M15.589,7.072h1.79v21.664h-1.79V7.072z"/>
	<path fill="#FFFFFF" d="M6.358,13.271l0.874-1.563l19.303,10.786l-0.874,1.563L6.358,13.271z"/>
	<path fill="#FFFFFF" d="M6.359,22.539l19.3-10.79l0.874,1.563l-19.3,10.79L6.359,22.539z"/>
	<path fill="#FFFFFF" d="M10.316,9.064l1.535-0.921l11.652,19.422l-1.535,0.921L10.316,9.064z"/>
	<path fill="#FFFFFF" d="M9.419,27.64L21.074,8.22l1.535,0.921l-11.656,19.42L9.419,27.64z"/>
	<path fill="#FFFFFF" d="M4.847,17.009h23.275v1.79H4.847V17.009z"/>
	<path fill="#FFFFFF" d="M12.904,9.4c0,0.716-0.627,1.343-1.343,1.343s-1.343-0.627-1.343-1.343s0.627-1.343,1.343-1.343   S12.904,8.684,12.904,9.4z M29.017,17.904c0,0.716-0.627,1.343-1.343,1.343c-0.716,0-1.343-0.627-1.343-1.343   c0-0.716,0.627-1.343,1.343-1.343C28.391,16.561,29.017,17.188,29.017,17.904z M6.637,17.904c0,0.716-0.627,1.343-1.343,1.343   s-1.343-0.627-1.343-1.343c0-0.716,0.627-1.343,1.343-1.343S6.637,17.188,6.637,17.904z M23.646,27.304   c0,0.716-0.627,1.343-1.343,1.343s-1.343-0.627-1.343-1.343s0.627-1.343,1.343-1.343S23.646,26.588,23.646,27.304z M22.751,9.4   c0,0.716-0.627,1.343-1.343,1.343s-1.343-0.627-1.343-1.343s0.627-1.343,1.343-1.343S22.751,8.684,22.751,9.4z M12.008,27.304   c0,0.716-0.627,1.343-1.343,1.343c-0.716,0-1.343-0.627-1.343-1.343s0.627-1.343,1.343-1.343   C11.382,25.961,12.008,26.588,12.008,27.304z"/>
	<path fill="#FFFFFF" d="M0,26.057l7.179-4.037l0.877,1.56l-7.179,4.037L0,26.057z"/>
	<path fill="#FFFFFF" d="M25.298,11.938l6.791-3.814l0.876,1.561l-6.791,3.814L25.298,11.938z"/>
	<path fill="#FFFFFF" d="M31.972,15.577l-7.699-1.969l2.059-7.609l1.701,0.537l-1.522,5.729l5.908,1.611L31.972,15.577z    M6.637,29.811l-1.701-0.537l1.522-5.729L0.55,21.933l0.448-1.701l7.699,1.969L6.637,29.811z M15.589,0h1.79v8.057h-1.79V0z"/>
	<path fill="#FFFFFF" d="M16.484,9.221l-5.64-5.461l1.253-1.253l4.387,4.207l4.387-4.207l1.253,1.253L16.484,9.221z M15.589,27.752   h1.79v8.057h-1.79V27.752z"/>
	<path fill="#FFFFFF" d="M20.871,33.302l-4.387-4.207l-4.387,4.207l-1.253-1.253l5.64-5.461l5.64,5.461L20.871,33.302z    M32.061,27.662l-0.806-0.448c-1.969-1.074-3.849-2.148-5.819-3.312l-0.806-0.448l0.895-1.522l0.806,0.448   c1.969,1.074,3.849,2.148,5.819,3.312l0.806,0.448L32.061,27.662z"/>
	<path fill="#FFFFFF" d="M26.332,29.811l-2.059-7.609l7.699-1.969l0.448,1.701l-5.908,1.611l1.522,5.729L26.332,29.811z"/>
	<path fill="#FFFFFF" d="M0.03,9.707l0.874-1.563l7.267,4.062l-0.874,1.563L0.03,9.707z"/>
	<path fill="#FFFFFF" d="M0.997,15.577L0.55,13.876l5.908-1.611L4.936,6.535l1.701-0.537l2.059,7.609L0.997,15.577z"/>
</g>
</svg></g><!--ITEM: Illustration component 7--><g transform="translate(654.0 49.0) rotate(0.0 34.5 37.5) translate(0.0 0.0) scale(2.0959902794653704 2.094504021447721)"><svg width="31.96579710144928" height="35.330560000000006" viewBox="0.0 0.0 31.96579710144928 35.330560000000006"><g>
	<path fill="#FFFFFF" d="M15.556,7.072h1.79v21.664h-1.79V7.072z"/>
	<path fill="#FFFFFF" d="M6.325,13.271l0.874-1.563l19.303,10.786l-0.874,1.563L6.325,13.271z"/>
	<path fill="#FFFFFF" d="M6.326,22.539l19.3-10.79l0.874,1.563l-19.3,10.79L6.326,22.539z"/>
	<path fill="#FFFFFF" d="M16.451,29.094l-4.207-4.028l-5.819-1.522l1.522-5.64l-1.522-5.64l5.819-1.522l4.207-4.028l4.207,4.028   l5.819,1.522l-1.611,5.64l1.522,5.64l-5.819,1.522L16.451,29.094z M8.663,22.201l4.476,1.164l3.312,3.223l3.312-3.223l4.476-1.164   l-1.253-4.297l1.164-4.297l-4.476-1.164l-3.223-3.223l-3.312,3.223l-4.476,1.164l1.164,4.297L8.663,22.201z"/>
	<path fill="#FFFFFF" d="M15.556,27.752h1.79v8.057h-1.79V27.752z M15.556,0h1.79v8.057h-1.79V0z"/>
	<path fill="#FFFFFF" d="M24.719,23.493l0.884-1.557l7.317,4.156l-0.884,1.557L24.719,23.493z"/>
	<path fill="#FFFFFF" d="M0.029,9.733L0.902,8.17l7.111,3.975l-0.874,1.563L0.029,9.733z"/>
	<path fill="#FFFFFF" d="M0,26.089l7.345-4.105l0.874,1.563l-7.345,4.105L0,26.089z"/>
	<path fill="#FFFFFF" d="M24.702,12.281l7.267-4.062l0.874,1.563l-7.267,4.062L24.702,12.281z"/>
	<path fill="#FFFFFF" d="M16.451,9.221l-5.64-5.461l1.253-1.253l4.387,4.207l4.387-4.207l1.253,1.253L16.451,9.221z M20.838,33.302   l-4.387-4.207l-4.387,4.207l-1.253-1.253l5.64-5.461l5.64,5.461L20.838,33.302z M0.964,15.577l-0.448-1.701l5.908-1.611   L4.903,6.535l1.701-0.537l2.059,7.609L0.964,15.577z M26.299,29.81l-2.059-7.609l7.699-1.969l0.448,1.701l-5.908,1.611L28,29.273   L26.299,29.81z M31.938,15.577l-7.699-1.969l2.059-7.609l1.701,0.537l-1.522,5.729l5.908,1.611L31.938,15.577z M6.604,29.81   l-1.701-0.537l1.522-5.729l-5.908-1.611l0.448-1.701l7.699,1.969L6.604,29.81z"/>
</g>
</svg></g><!--ITEM: Illustration component 8--><g transform="translate(315.0 469.0) rotate(0.0 39.5 43.0) translate(0.0 0.0) scale(2.399756986634265 2.401697944593387)"><svg width="32.08658227848101" height="34.97525581395349" viewBox="0.0 0.0 32.08658227848101 34.97525581395349"><g>
	<path fill="#FFFFFF" d="M15.556,7.072h1.79v21.664h-1.79V7.072z"/>
	<path fill="#FFFFFF" d="M6.325,13.271l0.874-1.563l19.303,10.786l-0.874,1.563L6.325,13.271z"/>
	<path fill="#FFFFFF" d="M6.326,22.539l19.3-10.79l0.874,1.563l-19.3,10.79L6.326,22.539z"/>
	<path fill="#FFFFFF" d="M16.451,29.094l-4.207-4.028l-5.819-1.522l1.522-5.64l-1.522-5.64l5.819-1.522l4.207-4.028l4.207,4.028   l5.819,1.522l-1.611,5.64l1.522,5.64l-5.819,1.522L16.451,29.094z M8.663,22.201l4.476,1.164l3.312,3.223l3.312-3.223l4.476-1.164   l-1.253-4.297l1.164-4.297l-4.476-1.164l-3.223-3.223l-3.312,3.223l-4.476,1.164l1.164,4.297L8.663,22.201z"/>
	<path fill="#FFFFFF" d="M15.556,27.752h1.79v8.057h-1.79V27.752z M15.556,0h1.79v8.057h-1.79V0z"/>
	<path fill="#FFFFFF" d="M24.719,23.493l0.884-1.557l7.317,4.156l-0.884,1.557L24.719,23.493z"/>
	<path fill="#FFFFFF" d="M0.029,9.733L0.902,8.17l7.111,3.975l-0.874,1.563L0.029,9.733z"/>
	<path fill="#FFFFFF" d="M0,26.089l7.345-4.105l0.874,1.563l-7.345,4.105L0,26.089z"/>
	<path fill="#FFFFFF" d="M24.702,12.281l7.267-4.062l0.874,1.563l-7.267,4.062L24.702,12.281z"/>
	<path fill="#FFFFFF" d="M16.451,9.221l-5.64-5.461l1.253-1.253l4.387,4.207l4.387-4.207l1.253,1.253L16.451,9.221z M20.838,33.302   l-4.387-4.207l-4.387,4.207l-1.253-1.253l5.64-5.461l5.64,5.461L20.838,33.302z M0.964,15.577l-0.448-1.701l5.908-1.611   L4.903,6.535l1.701-0.537l2.059,7.609L0.964,15.577z M26.299,29.81l-2.059-7.609l7.699-1.969l0.448,1.701l-5.908,1.611L28,29.273   L26.299,29.81z M31.938,15.577l-7.699-1.969l2.059-7.609l1.701,0.537l-1.522,5.729l5.908,1.611L31.938,15.577z M6.604,29.81   l-1.701-0.537l1.522-5.729l-5.908-1.611l0.448-1.701l7.699,1.969L6.604,29.81z"/>
</g>
</svg></g><!--ITEM: Illustration component 9--><g transform="translate(159.0 571.0) rotate(12.17238536821209 102.5 112.0) translate(0.0 0.0) scale(2.7247956403269753 2.73594469483224)"><svg width="73.76700000000001" height="80.04547767857143" viewBox="0.0 0.0 73.76700000000001 80.04547767857143"><g>
	<path fill="#93C3FF" d="M74.128,81.873H1.106C0.496,81.873,0,81.377,0,80.767V19.915c0-0.611,0.496-1.106,1.106-1.106h73.022   c0.611,0,1.106,0.496,1.106,1.106v60.852C75.235,81.377,74.739,81.873,74.128,81.873z"/>
	<rect x="30.979" y="18.809" fill="#53A0FF" width="13.277" height="63.064"/>
	<path fill="#53A0FF" d="M22.128,0c-3.055,0-5.532,2.477-5.532,5.532c0,0.967,0.249,1.874,0.686,2.664   c0.585,1.059,0.974,2.216,0.974,3.426v1.416c0,2.889,2.09,5.77,4.979,5.77c7.735,0,14.383,0,14.383,0S34.851,0,22.128,0z"/>
	<path fill="#53A0FF" d="M53.107,0c3.055,0,5.532,2.477,5.532,5.532c0,0.967-0.249,1.874-0.686,2.664   c-0.585,1.059-0.974,2.216-0.974,3.426v1.416c0,2.889-2.09,5.77-4.979,5.77c-7.735,0-14.383,0-14.383,0S40.383,0,53.107,0z"/>
	<path fill="#7EB8FF" d="M39.83,18.809h-4.426c-1.223,0-2.213-0.99-2.213-2.213V12.17c0-1.223,0.99-2.213,2.213-2.213h4.426   c1.223,0,2.213,0.99,2.213,2.213v4.426C42.043,17.818,41.053,18.809,39.83,18.809z"/>
</g>
</svg></g><!--ITEM: Illustration component 10--><g transform="translate(1010.0 495.0) rotate(12.066295165709198 93.0 122.5) translate(0.0 0.0) scale(4.202819956616052 4.258499617604116)"><svg width="43.30425806451613" height="56.357877551020415" viewBox="0.0 0.0 43.30425806451613 56.357877551020415"><g>
	<path fill="#93C3FF" d="M13.684,7.043c4.209,1.367,8.444,6.233,8.444,6.233s-6.287,1.447-10.496,0.08   c-1.744-0.566-2.697-2.439-2.131-4.182C10.067,7.431,11.94,6.477,13.684,7.043z"/>
	<path fill="#93C3FF" d="M30.572,7.043c-4.209,1.367-8.444,6.233-8.444,6.233s6.287,1.447,10.496,0.08   c1.744-0.566,2.697-2.439,2.131-4.182C34.189,7.431,32.316,6.477,30.572,7.043z"/>
	<path fill="#53A0FF" d="M18.96,3.27c2.601,3.58,3.168,10.006,3.168,10.006s-5.937-2.525-8.538-6.105   c-1.078-1.483-0.749-3.559,0.735-4.636C15.807,1.458,17.883,1.787,18.96,3.27z"/>
	<path fill="#53A0FF" d="M25.295,3.27c-2.601,3.58-3.168,10.006-3.168,10.006s5.937-2.525,8.538-6.105   c1.078-1.483,0.749-3.559-0.735-4.636C28.449,1.458,26.373,1.787,25.295,3.27z"/>
	<path fill="#7EB8FF" d="M25.447,3.319c0,4.426-3.319,9.958-3.319,9.958s-3.319-5.532-3.319-9.958C18.809,1.486,20.295,0,22.128,0   C23.961,0,25.447,1.486,25.447,3.319z"/>
	<path fill="#D4E7FF" d="M43.149,57.532H1.106C0.496,57.532,0,57.037,0,56.426V14.383c0-0.611,0.496-1.106,1.106-1.106h42.043   c0.611,0,1.106,0.496,1.106,1.106v42.043C44.256,57.037,43.76,57.532,43.149,57.532z"/>
	<rect x="18.809" y="13.277" fill="#93C3FF" width="6.638" height="44.256"/>
</g>
</svg></g><!--ITEM: Illustration component 11--><g transform="translate(832.0 552.0) rotate(0.0 100.0 84.0) translate(0.0 0.0) scale(2.6980358299158214 2.7115142515897865)"><svg width="72.64544" height="60.48280952380952" viewBox="0.0 0.0 72.64544 60.48280952380952"><g>
	<path fill="#2888FF" d="M73.022,61.958H1.106C0.496,61.958,0,61.462,0,60.852V14.383c0-0.611,0.496-1.106,1.106-1.106h71.916   c0.611,0,1.106,0.496,1.106,1.106v46.469C74.128,61.462,73.633,61.958,73.022,61.958z"/>
	<rect x="30.979" y="13.277" fill="#93C3FF" width="12.17" height="48.681"/>
	<path fill="#93C3FF" d="M37.064,9.404c0,0-7.192-9.404-13.83-9.404c-2.444,0-4.426,1.982-4.426,4.426   c0,0.867,0.253,1.673,0.687,2.352c0.512,0.802,0.589,1.776,0.453,2.718c-0.022,0.155-0.033,0.313-0.033,0.475   c0.008,1.821,1.697,3.306,3.518,3.306h13.631V9.404z"/>
	<path fill="#93C3FF" d="M37.064,9.404c0,0,7.745-9.404,13.83-9.404c2.444,0,4.426,1.982,4.426,4.426   c0,0.867-0.253,1.673-0.687,2.352C54.12,7.58,54.044,8.554,54.18,9.496c0.022,0.155,0.033,0.313,0.033,0.475   c-0.008,1.821-1.697,3.306-3.518,3.306H37.064V9.404z"/>
	<path fill="#7EB8FF" d="M40.937,10.511c0,2.139-1.734,2.766-3.872,2.766c-2.139,0-3.872-0.627-3.872-2.766   c0-3.319,1.734-4.979,3.872-4.979C39.203,5.532,40.937,7.192,40.937,10.511z"/>
</g>
</svg></g><!--ITEM: Illustration component 12--><g transform="translate(32.0 533.0) rotate(348.6532213706005 79.5 115.0) translate(0.0 0.0) scale(3.505136457828138 3.5234462368062256)"><svg width="44.50611320754717" height="63.857934782608694" viewBox="0.0 0.0 44.50611320754717 63.857934782608694"><g>
	<circle fill="#1A4E90" cx="23.234" cy="5.532" r="5.532"/>
	<circle fill="#013B84" cx="29.319" cy="7.191" r="3.872"/>
	<circle fill="#013B84" cx="17.149" cy="7.191" r="3.872"/>
	<rect x="2.213" y="14.383" fill="#013B84" width="40.937" height="50.894"/>
	<circle fill="#013B84" cx="23.234" cy="7.745" r="4.426"/>
	<path fill="#2888FF" d="M44.256,19.915H1.106C0.496,19.915,0,19.419,0,18.809v-7.745c0-1.223,0.99-2.213,2.213-2.213h40.937   c1.223,0,2.213,0.99,2.213,2.213v7.745C45.362,19.419,44.866,19.915,44.256,19.915z"/>
</g>
</svg></g><!--ITEM: Illustration component 13--><g transform="translate(1075.0 66.0) rotate(0.0 55.5 60.5)  scale(3.3718104495747263 3.3791331546023233)"><svg width="32.92" height="35.808" viewBox="0.0 0.0 32.92 35.808"><g>
	<path fill="#FFFFFF" d="M15.556,7.072h1.79v21.664h-1.79V7.072z"/>
	<path fill="#FFFFFF" d="M6.325,13.271l0.874-1.563l19.303,10.786l-0.874,1.563L6.325,13.271z"/>
	<path fill="#FFFFFF" d="M6.326,22.539l19.3-10.79l0.874,1.563l-19.3,10.79L6.326,22.539z"/>
	<path fill="#FFFFFF" d="M16.451,29.094l-4.207-4.028l-5.819-1.522l1.522-5.64l-1.522-5.64l5.819-1.522l4.207-4.028l4.207,4.028   l5.819,1.522l-1.611,5.64l1.522,5.64l-5.819,1.522L16.451,29.094z M8.663,22.201l4.476,1.164l3.312,3.223l3.312-3.223l4.476-1.164   l-1.253-4.297l1.164-4.297l-4.476-1.164l-3.223-3.223l-3.312,3.223l-4.476,1.164l1.164,4.297L8.663,22.201z"/>
	<path fill="#FFFFFF" d="M15.556,27.752h1.79v8.057h-1.79V27.752z M15.556,0h1.79v8.057h-1.79V0z"/>
	<path fill="#FFFFFF" d="M24.719,23.493l0.884-1.557l7.317,4.156l-0.884,1.557L24.719,23.493z"/>
	<path fill="#FFFFFF" d="M0.029,9.733L0.902,8.17l7.111,3.975l-0.874,1.563L0.029,9.733z"/>
	<path fill="#FFFFFF" d="M0,26.089l7.345-4.105l0.874,1.563l-7.345,4.105L0,26.089z"/>
	<path fill="#FFFFFF" d="M24.702,12.281l7.267-4.062l0.874,1.563l-7.267,4.062L24.702,12.281z"/>
	<path fill="#FFFFFF" d="M16.451,9.221l-5.64-5.461l1.253-1.253l4.387,4.207l4.387-4.207l1.253,1.253L16.451,9.221z M20.838,33.302   l-4.387-4.207l-4.387,4.207l-1.253-1.253l5.64-5.461l5.64,5.461L20.838,33.302z M0.964,15.577l-0.448-1.701l5.908-1.611   L4.903,6.535l1.701-0.537l2.059,7.609L0.964,15.577z M26.299,29.81l-2.059-7.609l7.699-1.969l0.448,1.701l-5.908,1.611L28,29.273   L26.299,29.81z M31.938,15.577l-7.699-1.969l2.059-7.609l1.701,0.537l-1.522,5.729l5.908,1.611L31.938,15.577z M6.604,29.81   l-1.701-0.537l1.522-5.729l-5.908-1.611l0.448-1.701l7.699,1.969L6.604,29.81z"/>
</g>
</svg></g><!--ITEM: Illustration component 14--><g transform="translate(110.0 95.0) rotate(0.0 33.5 36.5)  scale(2.035236938031592 2.0386505808757818)"><svg width="32.92" height="35.808" viewBox="0.0 0.0 32.92 35.808"><g>
	<path fill="#FFFFFF" d="M15.556,7.072h1.79v21.664h-1.79V7.072z"/>
	<path fill="#FFFFFF" d="M6.325,13.271l0.874-1.563l19.303,10.786l-0.874,1.563L6.325,13.271z"/>
	<path fill="#FFFFFF" d="M6.326,22.539l19.3-10.79l0.874,1.563l-19.3,10.79L6.326,22.539z"/>
	<path fill="#FFFFFF" d="M16.451,29.094l-4.207-4.028l-5.819-1.522l1.522-5.64l-1.522-5.64l5.819-1.522l4.207-4.028l4.207,4.028   l5.819,1.522l-1.611,5.64l1.522,5.64l-5.819,1.522L16.451,29.094z M8.663,22.201l4.476,1.164l3.312,3.223l3.312-3.223l4.476-1.164   l-1.253-4.297l1.164-4.297l-4.476-1.164l-3.223-3.223l-3.312,3.223l-4.476,1.164l1.164,4.297L8.663,22.201z"/>
	<path fill="#FFFFFF" d="M15.556,27.752h1.79v8.057h-1.79V27.752z M15.556,0h1.79v8.057h-1.79V0z"/>
	<path fill="#FFFFFF" d="M24.719,23.493l0.884-1.557l7.317,4.156l-0.884,1.557L24.719,23.493z"/>
	<path fill="#FFFFFF" d="M0.029,9.733L0.902,8.17l7.111,3.975l-0.874,1.563L0.029,9.733z"/>
	<path fill="#FFFFFF" d="M0,26.089l7.345-4.105l0.874,1.563l-7.345,4.105L0,26.089z"/>
	<path fill="#FFFFFF" d="M24.702,12.281l7.267-4.062l0.874,1.563l-7.267,4.062L24.702,12.281z"/>
	<path fill="#FFFFFF" d="M16.451,9.221l-5.64-5.461l1.253-1.253l4.387,4.207l4.387-4.207l1.253,1.253L16.451,9.221z M20.838,33.302   l-4.387-4.207l-4.387,4.207l-1.253-1.253l5.64-5.461l5.64,5.461L20.838,33.302z M0.964,15.577l-0.448-1.701l5.908-1.611   L4.903,6.535l1.701-0.537l2.059,7.609L0.964,15.577z M26.299,29.81l-2.059-7.609l7.699-1.969l0.448,1.701l-5.908,1.611L28,29.273   L26.299,29.81z M31.938,15.577l-7.699-1.969l2.059-7.609l1.701,0.537l-1.522,5.729l5.908,1.611L31.938,15.577z M6.604,29.81   l-1.701-0.537l1.522-5.729l-5.908-1.611l0.448-1.701l7.699,1.969L6.604,29.81z"/>
</g>
</svg></g><!--ITEM: Illustration component 15--><g transform="translate(-47.0 339.0) rotate(0.0 44.0 47.5)  scale(2.6694979523737294 2.6530384271671137)"><svg width="32.965" height="35.808" viewBox="0.0 0.0 32.965 35.808"><g>
	<path fill="#FFFFFF" d="M15.589,7.072h1.79v21.664h-1.79V7.072z"/>
	<path fill="#FFFFFF" d="M6.358,13.271l0.874-1.563l19.303,10.786l-0.874,1.563L6.358,13.271z"/>
	<path fill="#FFFFFF" d="M6.359,22.539l19.3-10.79l0.874,1.563l-19.3,10.79L6.359,22.539z"/>
	<path fill="#FFFFFF" d="M10.316,9.064l1.535-0.921l11.652,19.422l-1.535,0.921L10.316,9.064z"/>
	<path fill="#FFFFFF" d="M9.419,27.64L21.074,8.22l1.535,0.921l-11.656,19.42L9.419,27.64z"/>
	<path fill="#FFFFFF" d="M4.847,17.009h23.275v1.79H4.847V17.009z"/>
	<path fill="#FFFFFF" d="M12.904,9.4c0,0.716-0.627,1.343-1.343,1.343s-1.343-0.627-1.343-1.343s0.627-1.343,1.343-1.343   S12.904,8.684,12.904,9.4z M29.017,17.904c0,0.716-0.627,1.343-1.343,1.343c-0.716,0-1.343-0.627-1.343-1.343   c0-0.716,0.627-1.343,1.343-1.343C28.391,16.561,29.017,17.188,29.017,17.904z M6.637,17.904c0,0.716-0.627,1.343-1.343,1.343   s-1.343-0.627-1.343-1.343c0-0.716,0.627-1.343,1.343-1.343S6.637,17.188,6.637,17.904z M23.646,27.304   c0,0.716-0.627,1.343-1.343,1.343s-1.343-0.627-1.343-1.343s0.627-1.343,1.343-1.343S23.646,26.588,23.646,27.304z M22.751,9.4   c0,0.716-0.627,1.343-1.343,1.343s-1.343-0.627-1.343-1.343s0.627-1.343,1.343-1.343S22.751,8.684,22.751,9.4z M12.008,27.304   c0,0.716-0.627,1.343-1.343,1.343c-0.716,0-1.343-0.627-1.343-1.343s0.627-1.343,1.343-1.343   C11.382,25.961,12.008,26.588,12.008,27.304z"/>
	<path fill="#FFFFFF" d="M0,26.057l7.179-4.037l0.877,1.56l-7.179,4.037L0,26.057z"/>
	<path fill="#FFFFFF" d="M25.298,11.938l6.791-3.814l0.876,1.561l-6.791,3.814L25.298,11.938z"/>
	<path fill="#FFFFFF" d="M31.972,15.577l-7.699-1.969l2.059-7.609l1.701,0.537l-1.522,5.729l5.908,1.611L31.972,15.577z    M6.637,29.811l-1.701-0.537l1.522-5.729L0.55,21.933l0.448-1.701l7.699,1.969L6.637,29.811z M15.589,0h1.79v8.057h-1.79V0z"/>
	<path fill="#FFFFFF" d="M16.484,9.221l-5.64-5.461l1.253-1.253l4.387,4.207l4.387-4.207l1.253,1.253L16.484,9.221z M15.589,27.752   h1.79v8.057h-1.79V27.752z"/>
	<path fill="#FFFFFF" d="M20.871,33.302l-4.387-4.207l-4.387,4.207l-1.253-1.253l5.64-5.461l5.64,5.461L20.871,33.302z    M32.061,27.662l-0.806-0.448c-1.969-1.074-3.849-2.148-5.819-3.312l-0.806-0.448l0.895-1.522l0.806,0.448   c1.969,1.074,3.849,2.148,5.819,3.312l0.806,0.448L32.061,27.662z"/>
	<path fill="#FFFFFF" d="M26.332,29.811l-2.059-7.609l7.699-1.969l0.448,1.701l-5.908,1.611l1.522,5.729L26.332,29.811z"/>
	<path fill="#FFFFFF" d="M0.03,9.707l0.874-1.563l7.267,4.062l-0.874,1.563L0.03,9.707z"/>
	<path fill="#FFFFFF" d="M0.997,15.577L0.55,13.876l5.908-1.611L4.936,6.535l1.701-0.537l2.059,7.609L0.997,15.577z"/>
</g>
</svg></g><!--ITEM: Illustration component 16--><g transform="translate(1237.0 247.0) rotate(0.0 46.5 50.5)  scale(2.8250303766707168 2.820598748882931)"><svg width="32.92" height="35.808" viewBox="0.0 0.0 32.92 35.808"><g>
	<path fill="#FFFFFF" d="M15.556,7.072h1.79v21.664h-1.79V7.072z"/>
	<path fill="#FFFFFF" d="M6.325,13.271l0.874-1.563l19.303,10.786l-0.874,1.563L6.325,13.271z"/>
	<path fill="#FFFFFF" d="M6.326,22.539l19.3-10.79l0.874,1.563l-19.3,10.79L6.326,22.539z"/>
	<path fill="#FFFFFF" d="M16.451,29.094l-4.207-4.028l-5.819-1.522l1.522-5.64l-1.522-5.64l5.819-1.522l4.207-4.028l4.207,4.028   l5.819,1.522l-1.611,5.64l1.522,5.64l-5.819,1.522L16.451,29.094z M8.663,22.201l4.476,1.164l3.312,3.223l3.312-3.223l4.476-1.164   l-1.253-4.297l1.164-4.297l-4.476-1.164l-3.223-3.223l-3.312,3.223l-4.476,1.164l1.164,4.297L8.663,22.201z"/>
	<path fill="#FFFFFF" d="M15.556,27.752h1.79v8.057h-1.79V27.752z M15.556,0h1.79v8.057h-1.79V0z"/>
	<path fill="#FFFFFF" d="M24.719,23.493l0.884-1.557l7.317,4.156l-0.884,1.557L24.719,23.493z"/>
	<path fill="#FFFFFF" d="M0.029,9.733L0.902,8.17l7.111,3.975l-0.874,1.563L0.029,9.733z"/>
	<path fill="#FFFFFF" d="M0,26.089l7.345-4.105l0.874,1.563l-7.345,4.105L0,26.089z"/>
	<path fill="#FFFFFF" d="M24.702,12.281l7.267-4.062l0.874,1.563l-7.267,4.062L24.702,12.281z"/>
	<path fill="#FFFFFF" d="M16.451,9.221l-5.64-5.461l1.253-1.253l4.387,4.207l4.387-4.207l1.253,1.253L16.451,9.221z M20.838,33.302   l-4.387-4.207l-4.387,4.207l-1.253-1.253l5.64-5.461l5.64,5.461L20.838,33.302z M0.964,15.577l-0.448-1.701l5.908-1.611   L4.903,6.535l1.701-0.537l2.059,7.609L0.964,15.577z M26.299,29.81l-2.059-7.609l7.699-1.969l0.448,1.701l-5.908,1.611L28,29.273   L26.299,29.81z M31.938,15.577l-7.699-1.969l2.059-7.609l1.701,0.537l-1.522,5.729l5.908,1.611L31.938,15.577z M6.604,29.81   l-1.701-0.537l1.522-5.729l-5.908-1.611l0.448-1.701l7.699,1.969L6.604,29.81z"/>
</g>
</svg></g><!--ITEM: Illustration component 17--><g transform="translate(231.0 -55.0) rotate(0.0 45.0 49.0)  scale(2.7339003645200486 2.7368185880250224)"><svg width="32.92" height="35.808" viewBox="0.0 0.0 32.92 35.808"><g>
	<path fill="#FFFFFF" d="M15.556,7.072h1.79v21.664h-1.79V7.072z"/>
	<path fill="#FFFFFF" d="M6.325,13.271l0.874-1.563l19.303,10.786l-0.874,1.563L6.325,13.271z"/>
	<path fill="#FFFFFF" d="M6.326,22.539l19.3-10.79l0.874,1.563l-19.3,10.79L6.326,22.539z"/>
	<path fill="#FFFFFF" d="M16.451,29.094l-4.207-4.028l-5.819-1.522l1.522-5.64l-1.522-5.64l5.819-1.522l4.207-4.028l4.207,4.028   l5.819,1.522l-1.611,5.64l1.522,5.64l-5.819,1.522L16.451,29.094z M8.663,22.201l4.476,1.164l3.312,3.223l3.312-3.223l4.476-1.164   l-1.253-4.297l1.164-4.297l-4.476-1.164l-3.223-3.223l-3.312,3.223l-4.476,1.164l1.164,4.297L8.663,22.201z"/>
	<path fill="#FFFFFF" d="M15.556,27.752h1.79v8.057h-1.79V27.752z M15.556,0h1.79v8.057h-1.79V0z"/>
	<path fill="#FFFFFF" d="M24.719,23.493l0.884-1.557l7.317,4.156l-0.884,1.557L24.719,23.493z"/>
	<path fill="#FFFFFF" d="M0.029,9.733L0.902,8.17l7.111,3.975l-0.874,1.563L0.029,9.733z"/>
	<path fill="#FFFFFF" d="M0,26.089l7.345-4.105l0.874,1.563l-7.345,4.105L0,26.089z"/>
	<path fill="#FFFFFF" d="M24.702,12.281l7.267-4.062l0.874,1.563l-7.267,4.062L24.702,12.281z"/>
	<path fill="#FFFFFF" d="M16.451,9.221l-5.64-5.461l1.253-1.253l4.387,4.207l4.387-4.207l1.253,1.253L16.451,9.221z M20.838,33.302   l-4.387-4.207l-4.387,4.207l-1.253-1.253l5.64-5.461l5.64,5.461L20.838,33.302z M0.964,15.577l-0.448-1.701l5.908-1.611   L4.903,6.535l1.701-0.537l2.059,7.609L0.964,15.577z M26.299,29.81l-2.059-7.609l7.699-1.969l0.448,1.701l-5.908,1.611L28,29.273   L26.299,29.81z M31.938,15.577l-7.699-1.969l2.059-7.609l1.701,0.537l-1.522,5.729l5.908,1.611L31.938,15.577z M6.604,29.81   l-1.701-0.537l1.522-5.729l-5.908-1.611l0.448-1.701l7.699,1.969L6.604,29.81z"/>
</g>
</svg></g><!--ITEM: Illustration component 18--><g transform="translate(893.0 -46.0) rotate(0.0 49.0 53.5)  scale(2.976913730255164 2.988159070598749)"><svg width="32.92" height="35.808" viewBox="0.0 0.0 32.92 35.808"><g>
	<path fill="#FFFFFF" d="M15.556,7.072h1.79v21.664h-1.79V7.072z"/>
	<path fill="#FFFFFF" d="M6.325,13.271l0.874-1.563l19.303,10.786l-0.874,1.563L6.325,13.271z"/>
	<path fill="#FFFFFF" d="M6.326,22.539l19.3-10.79l0.874,1.563l-19.3,10.79L6.326,22.539z"/>
	<path fill="#FFFFFF" d="M16.451,29.094l-4.207-4.028l-5.819-1.522l1.522-5.64l-1.522-5.64l5.819-1.522l4.207-4.028l4.207,4.028   l5.819,1.522l-1.611,5.64l1.522,5.64l-5.819,1.522L16.451,29.094z M8.663,22.201l4.476,1.164l3.312,3.223l3.312-3.223l4.476-1.164   l-1.253-4.297l1.164-4.297l-4.476-1.164l-3.223-3.223l-3.312,3.223l-4.476,1.164l1.164,4.297L8.663,22.201z"/>
	<path fill="#FFFFFF" d="M15.556,27.752h1.79v8.057h-1.79V27.752z M15.556,0h1.79v8.057h-1.79V0z"/>
	<path fill="#FFFFFF" d="M24.719,23.493l0.884-1.557l7.317,4.156l-0.884,1.557L24.719,23.493z"/>
	<path fill="#FFFFFF" d="M0.029,9.733L0.902,8.17l7.111,3.975l-0.874,1.563L0.029,9.733z"/>
	<path fill="#FFFFFF" d="M0,26.089l7.345-4.105l0.874,1.563l-7.345,4.105L0,26.089z"/>
	<path fill="#FFFFFF" d="M24.702,12.281l7.267-4.062l0.874,1.563l-7.267,4.062L24.702,12.281z"/>
	<path fill="#FFFFFF" d="M16.451,9.221l-5.64-5.461l1.253-1.253l4.387,4.207l4.387-4.207l1.253,1.253L16.451,9.221z M20.838,33.302   l-4.387-4.207l-4.387,4.207l-1.253-1.253l5.64-5.461l5.64,5.461L20.838,33.302z M0.964,15.577l-0.448-1.701l5.908-1.611   L4.903,6.535l1.701-0.537l2.059,7.609L0.964,15.577z M26.299,29.81l-2.059-7.609l7.699-1.969l0.448,1.701l-5.908,1.611L28,29.273   L26.299,29.81z M31.938,15.577l-7.699-1.969l2.059-7.609l1.701,0.537l-1.522,5.729l5.908,1.611L31.938,15.577z M6.604,29.81   l-1.701-0.537l1.522-5.729l-5.908-1.611l0.448-1.701l7.699,1.969L6.604,29.81z"/>
</g>
</svg></g></svg>